<svg viewBox="0 0 60 37" fill="none" xmlns="http://www.w3.org/2000/svg">
<path d="M16.9125 13.8263C16.9125 14.565 16.9875 15.165 17.13 15.6075C17.2875 16.0463 17.49 16.5262 17.7675 17.0475C17.856 17.1852 17.9041 17.345 17.9062 17.5087C17.9062 17.7075 17.7862 17.91 17.5312 18.1088L16.2712 18.9488C16.12 19.0579 15.9401 19.1205 15.7537 19.1287C15.5512 19.1287 15.3525 19.0313 15.1537 18.8513C14.8842 18.5612 14.6431 18.246 14.4337 17.91C14.2106 17.5253 14.0042 17.1312 13.815 16.7288C12.2587 18.57 10.305 19.4925 7.94998 19.4925C6.27373 19.4925 4.93498 19.0087 3.95998 18.0487C2.98123 17.0887 2.48248 15.8063 2.48248 14.205C2.48248 12.5025 3.08248 11.1225 4.29748 10.08C5.51623 9.0375 7.13248 8.52 9.18748 8.52C9.86248 8.52 10.5637 8.58 11.3025 8.6775C12.0412 8.77875 12.8025 8.94 13.5975 9.12V7.6575C13.5975 6.135 13.2787 5.07375 12.66 4.455C12.0225 3.8325 10.9425 3.5325 9.40498 3.5325C8.70748 3.5325 7.99123 3.615 7.25248 3.795C6.51851 3.96968 5.79793 4.19651 5.09623 4.47375C4.86969 4.57632 4.63669 4.66401 4.39873 4.73625C4.29562 4.77032 4.18843 4.7905 4.07998 4.79625C3.79873 4.79625 3.65998 4.59375 3.65998 4.17375V3.19125C3.65998 2.8725 3.69748 2.62875 3.79873 2.49375C3.94985 2.30976 4.14269 2.16448 4.36123 2.07C5.05498 1.71 5.89498 1.41 6.87373 1.17C7.84873 0.9075 8.88748 0.791251 9.98623 0.791251C12.36 0.791251 14.0962 1.33125 15.2137 2.41125C16.3125 3.49125 16.8712 5.13375 16.8712 7.33875V13.8263H16.9125ZM8.80873 16.8675C9.46498 16.8675 10.1437 16.7475 10.8637 16.5075C11.58 16.2675 12.2212 15.825 12.7575 15.225C13.079 14.8566 13.3113 14.419 13.4362 13.9462C13.5562 13.4625 13.6387 12.885 13.6387 12.2025V11.3625C13.033 11.2156 12.4196 11.1029 11.8012 11.025C11.1794 10.9446 10.5532 10.9032 9.92623 10.9013C8.58748 10.9013 7.60873 11.1637 6.95248 11.7037C6.29248 12.2437 5.97748 13.005 5.97748 14.0063C5.97748 14.9438 6.21373 15.645 6.71248 16.1287C7.19248 16.6275 7.88998 16.8675 8.80873 16.8675ZM24.8325 19.0312C24.4725 19.0312 24.2325 18.9713 24.075 18.8288C23.9137 18.7088 23.775 18.4312 23.655 18.0487L18.9675 2.5725C18.875 2.31311 18.8134 2.04377 18.7837 1.77C18.7837 1.45125 18.945 1.27125 19.2637 1.27125H21.2212C21.5962 1.27125 21.8587 1.33125 21.9975 1.47C22.1587 1.59 22.2787 1.87125 22.3987 2.25L25.7512 15.5063L28.8637 2.25C28.9612 1.8525 29.0812 1.59 29.2387 1.47C29.4794 1.32262 29.7596 1.2532 30.0412 1.27125H31.635C32.0175 1.27125 32.2725 1.33125 32.4337 1.47C32.595 1.59 32.7337 1.87125 32.8125 2.25L35.9662 15.6675L39.4162 2.25C39.4802 1.95965 39.6185 1.69089 39.8175 1.47C40.0498 1.32274 40.323 1.25314 40.5975 1.27125H42.4537C42.7725 1.27125 42.9525 1.4325 42.9525 1.77C42.9525 1.87125 42.93 1.9725 42.915 2.0925C42.8827 2.26274 42.835 2.42968 42.7725 2.59125L37.9612 18.0675C37.8412 18.4688 37.7025 18.7313 37.545 18.8513C37.3185 18.9961 37.0521 19.0657 36.7837 19.05H35.07C34.6912 19.05 34.4325 18.99 34.2712 18.8513C34.11 18.7088 33.9712 18.45 33.8925 18.0487L30.7987 5.1375L27.7237 18.0338C27.6262 18.435 27.5062 18.6938 27.3487 18.8325C27.1875 18.975 26.9062 19.035 26.55 19.035H24.8325V19.0312ZM50.475 19.5713C49.4394 19.5726 48.4073 19.4518 47.4 19.2113C46.4025 18.9713 45.6262 18.7088 45.105 18.4088C44.7862 18.2288 44.5687 18.03 44.4862 17.8463C44.41 17.6698 44.3705 17.4797 44.37 17.2875V16.2675C44.37 15.8475 44.5275 15.645 44.8275 15.645C44.95 15.6453 45.0716 15.6655 45.1875 15.705C45.3075 15.7462 45.4875 15.825 45.6862 15.9075C46.3612 16.2075 47.1037 16.4475 47.88 16.6088C48.6787 16.7663 49.455 16.8488 50.2537 16.8488C51.5137 16.8488 52.4887 16.6275 53.1675 16.1888C53.4935 15.9914 53.7615 15.7111 53.9439 15.3764C54.1264 15.0418 54.2169 14.6648 54.2062 14.2838C54.213 14.0265 54.1687 13.7705 54.076 13.5304C53.9834 13.2903 53.8441 13.071 53.6662 12.885C53.31 12.5025 52.6312 12.1613 51.6525 11.8425L48.7575 10.9425C47.3025 10.4813 46.2225 9.79875 45.5662 8.89875C44.9238 8.06716 44.5732 7.04708 44.5687 5.99625C44.5687 5.15625 44.7487 4.41375 45.105 3.7725C45.465 3.135 45.945 2.5725 46.545 2.13C47.145 1.6725 47.82 1.33125 48.6187 1.09125C49.4175 0.85125 50.2537 0.75 51.1312 0.75C51.5737 0.75 52.0312 0.768751 52.47 0.828751C52.9275 0.888751 53.3475 0.971251 53.7675 1.05375C54.165 1.15125 54.5475 1.24875 54.9037 1.3725C55.2637 1.4925 55.5412 1.6125 55.7437 1.7325C55.9792 1.85074 56.1844 2.02136 56.3437 2.23125C56.4721 2.4265 56.5339 2.658 56.52 2.89125V3.8325C56.52 4.2525 56.3625 4.47375 56.0625 4.47375C55.7969 4.44342 55.5396 4.36192 55.305 4.23375C54.0991 3.69909 52.7914 3.43295 51.4725 3.45375C50.3362 3.45375 49.4362 3.63375 48.8175 4.01625C48.1987 4.39125 47.88 4.97625 47.88 5.7975C47.88 6.35625 48.0787 6.83625 48.48 7.21875C48.8775 7.5975 49.6162 7.97625 50.6737 8.3175L53.5087 9.2175C54.945 9.67875 55.9837 10.32 56.6025 11.1413C57.2212 11.9625 57.5175 12.9037 57.5175 13.9462C57.5175 14.8087 57.3412 15.585 57 16.2675C56.6467 16.9523 56.1505 17.5534 55.545 18.03C54.9262 18.5287 54.1875 18.8925 53.3287 19.1513C52.4287 19.4325 51.4912 19.5713 50.475 19.5713Z" fill="white"/>
<path fill-rule="evenodd" clip-rule="evenodd" d="M54.2437 29.2987C47.6812 34.1625 38.1412 36.7463 29.94 36.7463C18.4462 36.7463 8.08873 32.4825 0.266233 25.395C-0.352517 24.8325 0.206233 24.0713 0.941233 24.5138C9.40498 29.4375 19.8412 32.4225 30.6412 32.4225C37.92 32.4225 45.9225 30.9 53.2875 27.7762C54.3862 27.2775 55.3237 28.4962 54.2437 29.2987Z" fill="#FF9900"/>
<path fill-rule="evenodd" clip-rule="evenodd" d="M56.9775 26.175C56.1412 25.0987 51.4312 25.6575 49.2975 25.9163C48.66 25.9988 48.5587 25.4362 49.1362 25.0162C52.8862 22.3725 59.055 23.1338 59.7712 24.015C60.4912 24.915 59.5725 31.1025 56.0587 34.065C55.5225 34.5262 55.005 34.29 55.2412 33.69C56.04 31.7025 57.8175 27.24 56.9775 26.1787V26.175Z" fill="#FF9900"/>
</svg>
