<svg viewBox="0 0 56 50" fill="none" xmlns="http://www.w3.org/2000/svg">
<path d="M26.5475 18.3817C27.002 17.7118 27.4995 17.6266 27.9031 17.6266C28.3067 17.6266 28.9791 17.7118 29.4337 18.3817C33.0162 23.3024 38.9296 33.1045 43.2917 40.3351C46.1363 45.0504 48.3212 48.672 48.7694 49.1329C50.4521 50.8631 52.7599 49.7848 54.1009 47.8223C55.4211 45.8902 55.7876 44.5335 55.7876 43.0861C55.7876 42.1003 36.6609 6.52821 34.7347 3.56727C32.8822 0.719349 32.2789 0 29.1084 0H26.7359C23.5748 0 23.118 0.719349 21.2654 3.56727C19.3393 6.52821 0.212524 42.1003 0.212524 43.0861C0.212524 44.5335 0.579034 45.8902 1.89927 47.8223C3.24028 49.7848 5.54805 50.8631 7.23072 49.1329C7.67903 48.672 9.8639 45.0504 12.7086 40.3351C17.0706 33.1045 22.965 23.3024 26.5475 18.3817Z" fill="white"/>
</svg>
