<svg viewBox="0 0 60 60" fill="none" xmlns="http://www.w3.org/2000/svg">
<g clip-path="url(#clip0_236_870)">
<path d="M21.0797 58.2762C23.5887 59.2887 26.3145 59.8875 29.1739 59.9859C33.0457 60.1195 36.7254 59.3203 40.016 57.8016C36.0692 56.2523 32.4949 53.9836 29.4492 51.1641C27.4735 54.3293 24.5473 56.8289 21.0844 58.2762H21.0797Z" fill="#FF9100"/>
<path d="M29.4434 51.164C22.4813 44.7269 18.2602 35.407 18.6153 25.1871C18.6281 24.8543 18.6469 24.525 18.6645 24.1922C17.4164 23.8676 16.1156 23.673 14.775 23.6285C12.8567 23.5617 11.0016 23.7972 9.24729 24.2941C7.38752 27.5484 6.26838 31.282 6.12659 35.2875C5.76682 45.614 12.0141 54.6363 21.0703 58.2808C24.5379 56.8336 27.4594 54.3387 29.4352 51.1687L29.4446 51.164H29.4434Z" fill="#FFC400"/>
<path d="M29.4433 51.1641C31.064 48.5754 32.0449 45.5391 32.1562 42.2672C32.4586 33.6633 26.673 26.257 18.6632 24.1934C18.641 24.5262 18.6234 24.8555 18.614 25.1883C18.259 35.4082 22.4812 44.7281 29.4422 51.1652L29.4433 51.1641Z" fill="#FF9100"/>
<path d="M31.2644 0C26.7047 3.65391 23.1047 8.47148 20.9238 14.0203C19.6758 17.1996 18.8906 20.6133 18.6644 24.1922C26.6742 26.257 32.4586 33.6621 32.1574 42.266C32.0414 45.5379 31.0605 48.5707 29.4445 51.1629C32.4949 53.9824 36.0691 56.2465 40.0113 57.8004C47.932 54.1371 53.5476 46.2609 53.8769 36.9469C54.0855 30.9094 51.7676 25.5281 48.491 20.9906C45.0269 16.1871 31.2679 0.0046875 31.2679 0.0046875L31.2644 0Z" fill="#DD2C00"/>
</g>
<defs>
<clipPath id="clip0_236_870">
<rect width="60" height="60" fill="white"/>
</clipPath>
</defs>
</svg>
