<svg viewBox="0 0 54 60" fill="none" xmlns="http://www.w3.org/2000/svg">
<path d="M26.4441 30.0061L1.6425 56.8888L0.887578 57.7152C0.418242 57.0216 0.101953 56.195 0.0305859 55.277C0.0101953 55.1139 0 54.9504 0 54.7873V5.21472C0 4.10285 0.33668 3.10301 0.887578 2.28656L26.4441 30.0061Z" fill="#3A9BC8"/>
<path d="M37.595 17.9063L26.4441 30.0062L0.887573 2.28658C2.33625 0.164665 5.29488 -0.743186 7.80468 0.705486L37.595 17.9063Z" fill="#9BCD83"/>
<path d="M53.3269 30.1488C53.2861 31.8425 52.4189 33.536 50.7355 34.5052L37.5951 42.0955L26.4441 30.0061L37.5951 17.9062L45.8589 22.6811L50.7355 25.4966C52.5209 26.5273 53.3882 28.3431 53.3269 30.1488Z" fill="#EEB84C"/>
<path d="M0.889526 57.7139C2.3389 59.8369 5.29566 60.7418 7.80078 59.2955L37.5908 42.0961L26.4397 30.0013L0.889526 57.7139Z" fill="#B43F70"/>
<path opacity="0.2" d="M53.211 28.8805C52.9235 27.5308 52.0997 26.2841 50.7355 25.4966L45.8589 22.6811L37.595 17.9063L7.80469 0.705485C5.29488 -0.743186 2.33625 0.164665 0.887578 2.28658C0.33668 3.10302 0 4.10287 0 5.21474V33.7757C4.29855 34.1406 8.69836 34.3319 13.1779 34.3319C18.801 34.3319 24.2931 34.022 29.6214 33.4524L26.4541 30.0171L29.6227 33.4524C37.9673 32.5604 45.8868 31.002 53.211 28.8805Z" fill="white"/>
</svg>
