<svg viewBox="0 0 68 66" fill="none" xmlns="http://www.w3.org/2000/svg">
<path d="M3.44452 3.27777H64.5556V62.7222H3.44452V3.27777Z" fill="url(#paint0_radial_16_280)"/>
<path d="M3.44452 3.27777H64.5556V62.7222H3.44452V3.27777ZM0.666748 65.5H67.3333V0.5H0.666748V65.5ZM44.3333 23.6666C44.3333 23.4445 44.4166 23.3332 44.6667 23.3332H49.0278C49.2498 23.3332 49.3611 23.4166 49.3611 23.6666V45.5834C49.3611 45.8054 49.3055 45.9166 49.0278 45.9166H44.7222C44.4445 45.9166 44.3611 45.7778 44.3611 45.5556V23.6666H44.3333ZM44.0278 17.3611C44.0278 15.5833 45.2777 14.5278 46.8612 14.5278C48.5556 14.5278 49.6945 15.6666 49.6945 17.3611C49.6945 19.1944 48.5001 20.1943 46.8056 20.1943C45.1944 20.1944 44.0278 19.1944 44.0278 17.3611ZM31.5278 32.8055C30.7501 29.7222 28.9168 23 28.2222 19.75H28.1667C27.5833 23 26.1112 28.4999 24.9446 32.8055H31.5278ZM23.8056 37.3056L21.6111 45.6389C21.5556 45.861 21.4723 45.9165 21.1945 45.9165H17.1112C16.8335 45.9165 16.7778 45.8332 16.8335 45.4999L24.7223 17.8888C24.8611 17.3888 24.9445 16.9443 25 15.5833C25 15.3889 25.0833 15.3056 25.2222 15.3056H31.0555C31.2499 15.3056 31.3333 15.3611 31.3889 15.5833L40.2222 45.5555C40.2777 45.7775 40.2222 45.9165 40 45.9165H35.3888C35.1666 45.9165 35.0277 45.861 34.9722 45.6667L32.6944 37.3056H23.8056Z" fill="#FF7F18"/>
<defs>
<radialGradient id="paint0_radial_16_280" cx="0" cy="0" r="1" gradientUnits="userSpaceOnUse" gradientTransform="translate(22.6235 15.0666) scale(50.6665 49.1691)">
<stop stop-color="#423325" stop-opacity="0.98"/>
<stop offset="1" stop-color="#1C0A00"/>
</radialGradient>
</defs>
</svg>
