<svg viewBox="0 0 64 60" fill="none" xmlns="http://www.w3.org/2000/svg">
<path d="M61.6368 43.24C61.6368 43.24 53.8908 64.1287 27.2231 59.2659C26.8035 59.1878 26.4011 59.0419 25.9935 58.9187C25.8982 58.8908 25.8019 58.8603 25.7066 58.833C25.3062 58.7084 24.9098 58.5807 24.5159 58.4433C24.4708 58.4276 24.4278 58.4129 24.3821 58.3967C24.0233 58.2705 23.6664 58.1366 23.3142 58.0013C23.2219 57.9653 23.1301 57.9303 23.0383 57.8928C22.6588 57.7429 22.2812 57.5861 21.9077 57.4225C21.8388 57.3921 21.7724 57.3616 21.7024 57.3308C21.3754 57.1854 21.0525 57.0348 20.7324 56.8817C20.6492 56.8395 20.5656 56.8005 20.4819 56.761C20.4363 56.7382 20.3872 56.7154 20.3405 56.6921C20.1338 56.5888 19.932 56.4814 19.7283 56.3748C19.5712 56.2937 19.4115 56.2147 19.2554 56.131C18.967 55.9739 18.6827 55.8142 18.3998 55.651C18.2948 55.5912 18.1889 55.5334 18.085 55.4731C17.7008 55.2471 17.3206 55.0124 16.9461 54.7751C16.8402 54.7072 16.7354 54.6353 16.6309 54.5652C16.3867 54.4071 16.1423 54.2489 15.903 54.0838C15.8777 54.0665 15.8534 54.0483 15.8286 54.0305C15.7358 53.9676 15.6477 53.9033 15.5554 53.8363C15.303 53.661 15.0532 53.4815 14.8059 53.2991C14.6863 53.2089 14.5671 53.1182 14.4485 53.0274C14.2245 52.8565 14.0016 52.6816 13.7805 52.5053C13.6705 52.4172 13.559 52.33 13.4491 52.2408C13.1795 52.0187 12.9107 51.7926 12.6477 51.5646C12.598 51.5211 12.5453 51.4784 12.4946 51.4328C12.4895 51.4308 12.486 51.4267 12.4804 51.4221C12.1819 51.1606 11.8889 50.8924 11.5984 50.6188C11.5108 50.5387 11.4235 50.453 11.3354 50.3689C11.1185 50.1605 10.9036 49.9506 10.6923 49.7378C10.6045 49.6517 10.5178 49.5645 10.4337 49.4773C10.1606 49.1964 9.89088 48.9153 9.62737 48.6277C9.61774 48.6147 9.60812 48.607 9.59654 48.5943C9.59191 48.5894 9.58532 48.5826 9.58081 48.577C9.31121 48.28 9.04661 47.9764 8.78761 47.6718C8.71509 47.5861 8.64221 47.4985 8.57066 47.4119C8.3776 47.1792 8.18747 46.9471 8.00099 46.7119C7.92347 46.614 7.84595 46.5153 7.76941 46.4169C7.56014 46.1467 7.35331 45.8746 7.15306 45.5978C7.11552 45.5461 7.07554 45.4954 7.03947 45.4447C7.03179 45.4362 7.02533 45.4269 7.02021 45.4184C6.78815 45.0974 6.56413 44.7706 6.34413 44.4432C6.27576 44.3428 6.2114 44.2394 6.14547 44.1359C5.98629 43.8937 5.83016 43.6513 5.67915 43.4061C5.60017 43.2804 5.52509 43.1543 5.44904 43.0279C5.31168 42.7989 5.17736 42.5698 5.04707 42.3387C4.9726 42.2079 4.89911 42.0802 4.82707 41.9458C4.78698 41.8749 4.74346 41.8018 4.70446 41.7274C4.63597 41.6036 4.57417 41.4745 4.50726 41.3483C4.4039 41.1501 4.29896 40.9509 4.19914 40.7492C-0.0127123 32.3279 -0.700002 22.0168 4.8144 14.091L9.11852 8.632C4.2624 18.0177 6.44493 29.4467 12.52 37.7324C12.7394 38.0341 12.964 38.3316 13.1935 38.629C13.2646 38.7187 13.3359 38.809 13.4069 38.8952C13.5979 39.1384 13.793 39.3787 13.9902 39.6164C14.0613 39.7001 14.1306 39.7821 14.2032 39.8683C14.4668 40.1795 14.7364 40.4886 15.0132 40.7902C15.0264 40.8048 15.039 40.8181 15.0517 40.8322C15.3133 41.1177 15.5798 41.3993 15.851 41.6772C15.9351 41.7623 16.0208 41.8465 16.1065 41.9317C16.3194 42.149 16.5368 42.36 16.7578 42.5698C16.8414 42.6529 16.9255 42.733 17.0123 42.8156C17.3108 43.0934 17.6118 43.3695 17.9185 43.6393C17.9504 43.6672 17.9833 43.6929 18.0127 43.7187C18.2966 43.9655 18.5839 44.2059 18.8749 44.4451C18.9763 44.5278 19.0796 44.6103 19.183 44.6924C19.4115 44.8764 19.6427 45.0554 19.8754 45.2332C19.9864 45.3184 20.1004 45.4051 20.2156 45.4902C20.4685 45.6777 20.7239 45.8623 20.982 46.0447C21.0696 46.1039 21.1548 46.1684 21.2435 46.2281C21.5102 46.4127 21.7819 46.5921 22.0545 46.7675C22.1569 46.8355 22.2583 46.9064 22.3617 46.9724C22.7378 47.2105 23.1179 47.4446 23.5021 47.6707C23.6009 47.7275 23.6998 47.7807 23.7971 47.8355C24.087 48.0032 24.3775 48.1684 24.6734 48.3266C24.8335 48.4157 24.9983 48.4964 25.1604 48.582C25.4027 48.7067 25.645 48.8335 25.8902 48.953C25.983 48.9986 26.0732 49.0413 26.164 49.0843C26.4767 49.2348 26.7905 49.3799 27.1077 49.5237C27.1828 49.5562 27.2557 49.5901 27.3313 49.6225C27.7008 49.7843 28.0742 49.9394 28.4509 50.0878C28.5476 50.1263 28.6445 50.1633 28.7418 50.202C29.0844 50.3347 29.4296 50.4635 29.7788 50.5866C29.833 50.6059 29.8872 50.6256 29.9399 50.6449C30.3292 50.7788 30.7209 50.9064 31.1158 51.0271C31.2166 51.0585 31.3175 51.089 31.4209 51.1194C31.8253 51.2389 32.2272 51.3682 32.6419 51.4621C43.5835 53.9523 55.1311 51.716 61.6368 43.24ZM23.0344 29.8486C23.6325 30.7047 24.2945 31.7239 25.0877 32.4119C25.3746 32.7286 25.6756 33.0372 25.9823 33.3408C26.0593 33.4198 26.1389 33.4958 26.2185 33.5733C26.5155 33.8623 26.8196 34.1467 27.1319 34.4228C27.145 34.4325 27.1567 34.4457 27.1694 34.4549C27.1729 34.4589 27.176 34.4599 27.1785 34.4639C27.5253 34.767 27.8831 35.0595 28.246 35.3468C28.3267 35.4087 28.4066 35.4731 28.4883 35.536C28.8527 35.8152 29.2243 36.0899 29.6054 36.3514C29.6171 36.3594 29.6262 36.3677 29.6379 36.3757C29.8056 36.4923 29.9769 36.6007 30.1467 36.7123C30.2289 36.765 30.3064 36.8217 30.3884 36.8714C30.6611 37.0463 30.9364 37.2161 31.2166 37.3793C31.2562 37.4037 31.2947 37.4239 31.3337 37.4467C31.5744 37.5857 31.8203 37.723 32.0656 37.8557C32.1507 37.9034 32.238 37.9459 32.3251 37.9915C32.4944 38.0798 32.6647 38.1704 32.837 38.2561C32.8628 38.2683 32.8898 38.2804 32.9146 38.2911C33.2659 38.4639 33.6201 38.6312 33.9826 38.7883C34.0596 38.8228 34.1397 38.8531 34.2183 38.8856C34.5078 39.0083 34.7997 39.1284 35.0931 39.2409C35.2177 39.2881 35.3441 39.3332 35.4677 39.3783C35.7347 39.4776 36.0019 39.5679 36.2715 39.6581C36.3937 39.697 36.5133 39.7371 36.6354 39.7746C37.0186 39.8932 37.3977 40.0442 37.7976 40.1102C58.3875 43.5218 63.1407 27.6688 63.1407 27.6688C58.8554 33.84 50.5573 36.7844 41.7022 34.4863C41.3093 34.3829 40.9218 34.2699 40.537 34.1487C40.4183 34.1131 40.3027 34.0747 40.1856 34.0356C39.912 33.9469 39.6397 33.8527 39.3697 33.7543C39.2465 33.7092 39.1229 33.6641 39.0016 33.6174C38.7061 33.5038 38.4137 33.3864 38.1243 33.2637C38.0447 33.2293 37.9652 33.1988 37.8876 33.1633C37.5243 33.005 37.1665 32.8387 36.8136 32.6643C36.6317 32.5755 36.4537 32.4816 36.2743 32.3896C36.1708 32.3363 36.067 32.283 35.9636 32.2297C35.7345 32.1053 35.5064 31.9762 35.2818 31.8453C35.2286 31.8146 35.1729 31.7854 35.1186 31.7533C34.8404 31.5901 34.5656 31.422 34.2935 31.2494C34.2097 31.196 34.1287 31.1379 34.0451 31.0829C33.8651 30.9666 33.6863 30.8488 33.5098 30.7292C33.1307 30.4677 32.7617 30.1931 32.3973 29.9153C32.3132 29.8491 32.2295 29.7845 32.1463 29.7183C28.271 26.6578 25.1991 22.4758 23.7372 17.7337C22.207 12.8156 22.537 7.29497 25.1893 2.81473L21.9308 7.41429C17.9435 13.1531 18.1599 20.835 21.2703 26.9043C21.7927 27.9219 22.3791 28.9087 23.0344 29.8486ZM44.7366 22.7488C44.9064 22.8122 45.0757 22.8684 45.2474 22.9265C45.3225 22.9495 45.3975 22.9754 45.473 22.9977C45.7153 23.074 45.9561 23.1625 46.2065 23.2095C57.5761 25.4062 60.6592 17.3752 61.4803 16.1933C58.7788 20.0825 54.24 21.0161 48.6693 19.6646C48.2299 19.5572 47.7464 19.3983 47.3215 19.2482C46.7777 19.0543 46.243 18.8334 45.7219 18.5833C44.7321 18.108 43.7904 17.5315 42.9156 16.8714C37.9318 13.0896 34.836 5.87517 38.0879 0L36.328 2.42556C33.9773 5.88529 33.7467 10.1818 35.3773 14.0032C37.0975 18.0587 40.6225 21.2406 44.7366 22.7488Z" fill="#0773B4"/>
</svg>
