<svg viewBox="0 0 32 70" fill="none" xmlns="http://www.w3.org/2000/svg">
<path d="M17.5933 70L15.73 69.3631C15.73 69.3631 15.9575 59.8636 12.548 59.1819C10.2758 56.5452 12.9125 -52.6362 21.094 58.8179C21.094 58.8179 18.2755 60.2266 17.7756 62.6362C17.2298 65 17.5933 70 17.5933 70Z" fill="#A6A385"/>
<path d="M18.5937 60.8181C18.5937 60.8181 34.9123 50.0906 31.0935 27.7721C27.4121 11.5457 18.7302 6.22747 17.7756 4.18185C16.7304 2.72732 15.73 0.182248 15.73 0.182248L16.4122 45.3177C16.4122 45.3635 15.0024 59.1356 18.5937 60.8181Z" fill="#499D4A"/>
<path d="M14.7759 61.4087C14.7759 61.4087 -0.542821 50.9541 0.366449 32.5456C1.22991 14.1365 12.0481 5.09112 14.139 3.45483C15.5029 2.0003 15.5482 1.45454 15.6393 0C16.5939 2.04561 16.4122 30.5911 16.5481 33.9543C16.9569 46.9087 15.8211 58.9548 14.7759 61.4087Z" fill="#58AA50"/>
</svg>
