<svg viewBox="0 0 82 56" fill="none" xmlns="http://www.w3.org/2000/svg">
<path d="M19.9774 50.6052H16.8526C16.7421 45.3307 16.4377 40.3719 15.9401 35.7253H15.9124L11.1547 50.6052H8.77553L4.04621 35.7253H4.01904C3.66821 40.1865 3.4472 45.1465 3.35542 50.6052H0.50708C0.690649 43.9672 1.15199 37.7439 1.88928 31.935H5.76234L10.27 45.6537H10.2978L14.8333 31.935H18.5391C19.3507 38.7391 19.8301 44.9629 19.9774 50.6052ZM33.5295 36.8303C32.2572 43.7347 30.5785 48.7514 28.4953 51.883C26.8721 54.2935 25.0938 55.5 23.1573 55.5C22.641 55.5 22.004 55.3442 21.2491 55.035V53.3702C21.6181 53.4234 22.0511 53.4536 22.5486 53.4536C23.4532 53.4536 24.1802 53.2048 24.7345 52.706C25.3976 52.0985 25.7291 51.4156 25.7291 50.6602C25.7291 50.1421 25.4706 49.0829 24.9549 47.4791L21.5257 36.8297H24.5957L27.0569 44.7944C27.61 46.6029 27.8407 47.8656 27.7483 48.5848C29.0943 44.9901 30.0345 41.0705 30.5701 36.8291L33.5295 36.8303Z" fill="#5D87A1"/>
<path d="M75.1254 50.6052H66.2489V31.935H69.2349V48.307H75.1254V50.6052ZM63.9253 51.0563L60.493 49.3625C60.7973 49.1125 61.0884 48.842 61.3505 48.5286C62.8094 46.8149 63.537 44.2806 63.537 40.9238C63.537 34.7471 61.1132 31.6572 56.2637 31.6572C53.8857 31.6572 52.0307 32.441 50.7041 34.0092C49.2464 35.7241 48.5188 38.2494 48.5188 41.588C48.5188 44.8699 49.1637 47.2774 50.4541 48.8046C51.6346 50.188 53.4141 50.8806 55.7939 50.8806C56.6815 50.8806 57.4961 50.7719 58.2383 50.5527L62.7067 53.1541L63.9253 51.0563ZM52.8067 46.8692C52.0507 45.6531 51.6726 43.7003 51.6726 41.0077C51.6726 36.3068 53.1007 33.9536 55.9599 33.9536C57.4545 33.9536 58.5498 34.5164 59.2503 35.6395C60.0051 36.8575 60.3849 38.7928 60.3849 41.4479C60.3849 46.1875 58.9556 48.5576 56.0982 48.5576C54.6031 48.5582 53.5077 47.9972 52.8067 46.8692ZM47.2175 45.4303C47.2175 47.0136 46.6366 48.3124 45.476 49.3299C44.3142 50.3432 42.7563 50.851 40.8041 50.851C38.978 50.851 37.2076 50.2677 35.4938 49.1071L36.2964 47.5039C37.7709 48.2424 39.106 48.6095 40.3047 48.6095C41.4296 48.6095 42.3088 48.3601 42.9465 47.8656C43.5835 47.3692 43.9634 46.673 43.9634 45.7926C43.9634 44.6833 43.1898 43.7353 41.7708 42.9412C40.4623 42.2227 37.8452 40.7203 37.8452 40.7203C36.4268 39.6865 35.7167 38.5766 35.7167 36.7482C35.7167 35.235 36.2462 34.0134 37.306 33.0841C38.3669 32.1511 39.7359 31.6862 41.4139 31.6862C43.147 31.6862 44.7224 32.1505 46.1414 33.0696L45.4217 34.6734C44.2079 34.1577 43.0099 33.8999 41.8282 33.8999C40.8711 33.8999 40.132 34.1299 39.6181 34.5919C39.1 35.052 38.7806 35.6408 38.7806 36.3629C38.7806 37.4668 39.5704 38.4269 41.0281 39.2366C42.3541 39.9564 45.0364 41.4848 45.0364 41.4848C46.4911 42.5167 47.2175 43.6163 47.2175 45.4303Z" fill="#F8981D"/>
<path d="M78.874 25.6815C77.0685 25.6357 75.6706 25.8174 74.4974 26.3138C74.1586 26.449 73.62 26.449 73.5729 26.8772C73.7559 27.0583 73.777 27.3506 73.9358 27.6006C74.2063 28.0516 74.6779 28.6585 75.1085 28.9749C75.5813 29.3372 76.0559 29.6959 76.5535 30.0117C77.4308 30.5546 78.4254 30.8704 79.2804 31.4114C79.7786 31.726 80.2738 32.133 80.7725 32.4718C81.0177 32.6523 81.1747 32.9452 81.4929 33.0581V32.9893C81.3335 32.7864 81.2882 32.4929 81.1318 32.2671L80.4543 31.6137C79.7997 30.7345 78.9864 29.967 78.109 29.3366C77.3868 28.839 75.8071 28.1627 75.5143 27.3306L75.4684 27.2848C75.9647 27.2383 76.5535 27.0583 77.0251 26.92C77.7926 26.7177 78.4924 26.7636 79.2798 26.5613C79.6421 26.4708 80.0014 26.3572 80.3649 26.2455V26.042C79.9567 25.6357 79.6657 25.0958 79.2364 24.7118C78.0878 23.7197 76.8222 22.7493 75.5143 21.9371C74.8138 21.4848 73.9129 21.1938 73.1671 20.8091C72.8984 20.6733 72.4455 20.6062 72.2873 20.3804C71.8827 19.884 71.6551 19.2307 71.3616 18.6431C70.7095 17.4034 70.076 16.0279 69.5132 14.7169C69.1063 13.8377 68.8587 12.9597 68.3623 12.1464C66.0375 8.31195 63.5128 5.98957 59.6325 3.71005C58.7986 3.23543 57.8065 3.03314 56.7468 2.78436L55.0542 2.69499C54.6931 2.53678 54.3314 2.10745 54.0162 1.90456C52.7288 1.09299 49.4143 -0.666008 48.4674 1.65638C47.8576 3.12432 49.3696 4.56751 49.8889 5.31205C50.2723 5.82895 50.7693 6.41709 51.0374 7.00403C51.1962 7.38747 51.2409 7.79446 51.3997 8.19964C51.7608 9.19236 52.0984 10.2968 52.573 11.2231C52.8206 11.6953 53.0905 12.1917 53.4069 12.6192C53.5881 12.8692 53.9033 12.9797 53.9721 13.3873C53.6575 13.8365 53.6327 14.5146 53.4522 15.0786C52.6406 17.6275 52.9576 20.785 54.108 22.6581C54.4678 23.2221 55.3265 24.4636 56.475 23.9878C57.4919 23.582 57.2667 22.2964 57.5589 21.169C57.626 20.8967 57.5819 20.7179 57.7171 20.5392V20.5833C58.0317 21.2143 58.3494 21.8224 58.641 22.4552C59.3409 23.5596 60.5594 24.7106 61.5745 25.4756C62.1149 25.8838 62.5431 26.5819 63.22 26.8313V26.7636H63.1753C63.0382 26.5613 62.8377 26.4708 62.6578 26.3138C62.2508 25.9074 61.8003 25.411 61.4845 24.9606C60.5389 23.6967 59.702 22.2976 58.9593 20.8538C58.5957 20.1533 58.2823 19.3877 57.9895 18.6884C57.853 18.4185 57.853 18.0115 57.6266 17.8756C57.2872 18.3714 56.7927 18.8007 56.5451 19.4082C56.1157 20.3798 56.0711 21.5748 55.9116 22.8175L55.8229 22.861C55.1043 22.6804 54.8543 21.9371 54.5814 21.3061C53.9057 19.7035 53.7921 17.1311 54.3785 15.2821C54.5355 14.8093 55.2148 13.3202 54.9437 12.8698C54.8078 12.438 54.3561 12.1923 54.1086 11.8523C53.8175 11.4248 53.4987 10.8837 53.2958 10.4091C52.7547 9.14647 52.4824 7.74736 51.8997 6.48533C51.6274 5.89718 51.1546 5.2885 50.7717 4.74686C50.3418 4.13818 49.869 3.70945 49.529 2.98786C49.4167 2.73968 49.2591 2.33389 49.4396 2.06397C49.4837 1.88282 49.5755 1.81519 49.7554 1.7699C50.0477 1.52293 50.8828 1.83693 51.1757 1.97279C52.012 2.31095 52.7113 2.62676 53.4093 3.10017C53.7251 3.32661 54.0639 3.75534 54.4691 3.86826H54.9437C55.6641 4.02526 56.4762 3.91174 57.1544 4.11584C58.3494 4.49988 59.4321 5.06327 60.403 5.67134C63.3577 7.54507 65.7942 10.2074 67.439 13.3873C67.709 13.9054 67.8237 14.38 68.0701 14.9204C68.5453 16.0267 69.1328 17.1547 69.6044 18.2373C70.0784 19.2971 70.5301 20.3792 71.207 21.2596C71.5446 21.733 72.9008 21.9812 73.5089 22.2294C73.9588 22.4317 74.6592 22.6116 75.065 22.8598C75.8325 23.3326 76.597 23.8754 77.3185 24.3954C77.6778 24.6659 78.807 25.2299 78.874 25.6815ZM55.8639 6.07833C55.5525 6.0751 55.242 6.11327 54.9407 6.19186V6.23714H54.9841C55.1659 6.59764 55.4817 6.84763 55.7069 7.16223C55.8887 7.52394 56.0463 7.88262 56.2244 8.24372L56.2679 8.19903C56.5861 7.9738 56.7443 7.6127 56.7443 7.07105C56.6073 6.91164 56.5861 6.75585 56.472 6.59764C56.3392 6.3718 56.0463 6.25949 55.8639 6.07833Z" fill="#5D87A1"/>
<path d="M81.0225 50.6022H81.4899V48.3148H80.7888L80.217 49.8758L79.5956 48.3148H78.9205V50.6022H79.3619V48.8619H79.3867L80.0377 50.6022H80.374L81.0225 48.8619V50.6022ZM77.2575 50.6022H77.7521V48.7025H78.3994V48.3142H76.5831V48.7025H77.2563L77.2575 50.6022Z" fill="#F8981D"/>
</svg>
