<svg viewBox="0 0 82 50" fill="none" xmlns="http://www.w3.org/2000/svg">
<path d="M40.5569 49.9999C40.2801 49.9999 40.0217 49.9261 39.7818 49.7969L37.327 48.3388C36.9578 48.1358 37.1424 48.062 37.2531 48.025C37.7515 47.8589 37.8438 47.822 38.3606 47.5267C38.4159 47.4898 38.4898 47.5082 38.5451 47.5452L40.4277 48.671C40.5016 48.7079 40.5939 48.7079 40.6492 48.671L48.0136 44.4075C48.0874 44.3706 48.1243 44.2967 48.1243 44.2044V35.6958C48.1243 35.6035 48.0874 35.5296 48.0136 35.4927L40.6492 31.2476C40.5754 31.2107 40.4831 31.2107 40.4277 31.2476L33.0634 35.4927C32.9896 35.5296 32.9527 35.6219 32.9527 35.6958V44.2044C32.9527 44.2783 32.9896 44.3706 33.0634 44.4075L35.0752 45.5703C36.1642 46.124 36.8471 45.478 36.8471 44.832V36.434C36.8471 36.3233 36.9394 36.2126 37.0686 36.2126H38.0099C38.1206 36.2126 38.2314 36.3048 38.2314 36.434V44.832C38.2314 46.2901 37.4377 47.1391 36.0534 47.1391C35.6289 47.1391 35.2967 47.1391 34.3554 46.6777L32.4174 45.5703C31.9375 45.2934 31.6422 44.7766 31.6422 44.2229V35.7142C31.6422 35.1605 31.9375 34.6437 32.4174 34.3669L39.7818 30.1033C40.2432 29.8449 40.8707 29.8449 41.3321 30.1033L48.6965 34.3669C49.1764 34.6437 49.4717 35.1605 49.4717 35.7142V44.2229C49.4717 44.7766 49.1764 45.2934 48.6965 45.5703L41.3321 49.8338C41.0922 49.9446 40.8153 49.9999 40.5569 49.9999ZM42.8272 44.1491C39.5972 44.1491 38.9327 42.6725 38.9327 41.4174C38.9327 41.3067 39.025 41.1959 39.1542 41.1959H40.114C40.2247 41.1959 40.317 41.2698 40.317 41.3805C40.4647 42.3587 40.8892 42.8386 42.8456 42.8386C44.396 42.8386 45.0605 42.4879 45.0605 41.6574C45.0605 41.1775 44.8759 40.8268 42.458 40.5869C40.4462 40.3838 39.1911 39.9409 39.1911 38.3351C39.1911 36.8401 40.4462 35.9542 42.5503 35.9542C44.9128 35.9542 46.0756 36.7663 46.2232 38.5381C46.2232 38.5935 46.2048 38.6489 46.1679 38.7042C46.131 38.7412 46.0756 38.7781 46.0202 38.7781H45.0605C44.9682 38.7781 44.8759 38.7042 44.8574 38.612C44.6359 37.5968 44.0638 37.2646 42.5503 37.2646C40.8523 37.2646 40.6492 37.8552 40.6492 38.2982C40.6492 38.8334 40.8892 38.9996 43.1778 39.2949C45.4481 39.5902 46.5186 40.0147 46.5186 41.602C46.5001 43.2262 45.1712 44.1491 42.8272 44.1491Z" fill="#539E43"/>
<path d="M17.7073 16.722C17.7073 16.3898 17.5227 16.076 17.2274 15.9099L9.4016 11.4064C9.2724 11.3326 9.12474 11.2957 8.97709 11.2772H8.90326C8.7556 11.2772 8.60795 11.3326 8.47875 11.4064L0.652978 15.9099C0.357666 16.076 0.173096 16.3898 0.173096 16.722L0.191553 28.8298C0.191553 28.9959 0.283838 29.1621 0.431494 29.2359C0.57915 29.3282 0.76372 29.3282 0.892919 29.2359L5.54408 26.5781C5.8394 26.412 6.02397 26.0982 6.02397 25.766V20.0997C6.02397 19.7674 6.20854 19.4537 6.50385 19.2876L8.47875 18.1432C8.62641 18.0509 8.79252 18.014 8.95863 18.014C9.12474 18.014 9.29086 18.0509 9.42006 18.1432L11.395 19.2876C11.6903 19.4537 11.8748 19.7674 11.8748 20.0997V25.766C11.8748 26.0982 12.0594 26.412 12.3547 26.5781L17.0059 29.2359C17.1535 29.3282 17.3381 29.3282 17.4858 29.2359C17.6334 29.1621 17.7257 28.9959 17.7257 28.8298L17.7073 16.722Z" fill="white"/>
<path d="M55.3224 0.055371C55.1748 -0.018457 54.9902 -0.018457 54.861 0.055371C54.7133 0.147656 54.6211 0.295312 54.6211 0.461425V12.4585C54.6211 12.5692 54.5657 12.68 54.4549 12.7538C54.3442 12.8092 54.2335 12.8092 54.1227 12.7538L52.1663 11.6279C51.871 11.4618 51.5203 11.4618 51.225 11.6279L43.3992 16.1499C43.1039 16.316 42.9193 16.6298 42.9193 16.962V25.9875C42.9193 26.3197 43.1039 26.6335 43.3992 26.7996L51.225 31.3215C51.5203 31.4876 51.871 31.4876 52.1663 31.3215L59.992 26.7996C60.2874 26.6335 60.4719 26.3197 60.4719 25.9875V3.48837C60.4719 3.13769 60.2874 2.82392 59.992 2.65781L55.3224 0.055371ZM54.6026 23.0159C54.6026 23.1082 54.5657 23.182 54.4919 23.2189L51.8156 24.7693C51.7418 24.8062 51.6495 24.8062 51.5756 24.7693L48.8994 23.2189C48.8256 23.182 48.7886 23.0897 48.7886 23.0159V19.9151C48.7886 19.8228 48.8256 19.749 48.8994 19.7121L51.5756 18.1617C51.6495 18.1248 51.7418 18.1248 51.8156 18.1617L54.4919 19.7121C54.5657 19.749 54.6026 19.8413 54.6026 19.9151V23.0159Z" fill="white"/>
<path d="M81.3656 19.8413C81.6609 19.6752 81.8271 19.3614 81.8271 19.0292V16.8328C81.8271 16.5006 81.6425 16.1868 81.3656 16.0207L73.5952 11.5172C73.2999 11.351 72.9492 11.351 72.6539 11.5172L64.8281 16.0391C64.5328 16.2052 64.3483 16.519 64.3483 16.8512V25.8767C64.3483 26.2089 64.5328 26.5227 64.8281 26.6888L72.5985 31.1185C72.8939 31.2846 73.2445 31.2846 73.5214 31.1185L78.2279 28.4976C78.3756 28.4238 78.4679 28.2577 78.4679 28.0916C78.4679 27.9254 78.3756 27.7593 78.2279 27.6855L70.3653 23.1635C70.2176 23.0712 70.1253 22.9236 70.1253 22.7575V19.9336C70.1253 19.7674 70.2176 19.6013 70.3653 19.5275L72.82 18.1248C72.9677 18.0325 73.1523 18.0325 73.2999 18.1248L75.7547 19.5275C75.9024 19.6198 75.9946 19.7674 75.9946 19.9336V22.1484C75.9946 22.3145 76.0869 22.4806 76.2346 22.5545C76.3822 22.6467 76.5668 22.6467 76.7145 22.5545L81.3656 19.8413Z" fill="white"/>
<path d="M73.0045 19.4167C73.0599 19.3797 73.1337 19.3797 73.1891 19.4167L74.6841 20.2841C74.7395 20.3211 74.7764 20.3764 74.7764 20.4503V22.1852C74.7764 22.259 74.7395 22.3144 74.6841 22.3513L73.1891 23.2188C73.1337 23.2557 73.0599 23.2557 73.0045 23.2188L71.5095 22.3513C71.4542 22.3144 71.4172 22.259 71.4172 22.1852V20.4503C71.4172 20.3764 71.4542 20.3211 71.5095 20.2841L73.0045 19.4167Z" fill="#539E43"/>
<path d="M30.7934 11.5542C30.4981 11.388 30.1474 11.388 29.8521 11.5542L22.0817 16.0392C21.7864 16.2053 21.6202 16.5191 21.6202 16.8513V25.8399C21.6202 26.1721 21.8048 26.4859 22.0817 26.652L29.8521 31.137C30.1474 31.3031 30.4981 31.3031 30.7934 31.137L38.5638 26.652C38.8591 26.4859 39.0252 26.1721 39.0252 25.8399V16.8513C39.0252 16.5191 38.8406 16.2053 38.5638 16.0392L30.7934 11.5542Z" fill="url(#paint0_linear_16_45)"/>
<mask id="mask0_16_45" style="mask-type:luminance" maskUnits="userSpaceOnUse" x="21" y="11" width="19" height="21">
<path d="M30.7934 11.5542C30.4981 11.388 30.1474 11.388 29.8521 11.5542L22.0817 16.0392C21.7864 16.2053 21.6202 16.5191 21.6202 16.8513V25.8399C21.6202 26.1721 21.8048 26.4859 22.0817 26.652L29.8521 31.137C30.1474 31.3031 30.4981 31.3031 30.7934 31.137L38.5638 26.652C38.8591 26.4859 39.0252 26.1721 39.0252 25.8399V16.8513C39.0252 16.5191 38.8406 16.2053 38.5638 16.0392L30.7934 11.5542Z" fill="white"/>
</mask>
<g mask="url(#mask0_16_45)">
<path d="M38.5821 16.0393L30.7748 11.5542C30.701 11.5173 30.6087 11.4804 30.5349 11.4619L21.7863 26.449C21.8601 26.5413 21.9524 26.6151 22.0447 26.6705L29.852 31.1555C30.0735 31.2847 30.3318 31.3217 30.5718 31.2478L38.7852 16.2238C38.7298 16.15 38.656 16.0946 38.5821 16.0393Z" fill="url(#paint1_linear_16_45)"/>
</g>
<mask id="mask1_16_45" style="mask-type:luminance" maskUnits="userSpaceOnUse" x="21" y="11" width="19" height="21">
<path d="M30.7934 11.5542C30.4981 11.388 30.1474 11.388 29.8521 11.5542L22.0817 16.0392C21.7864 16.2053 21.6202 16.5191 21.6202 16.8513V25.8399C21.6202 26.1721 21.8048 26.4859 22.0817 26.652L29.8521 31.137C30.1474 31.3031 30.4981 31.3031 30.7934 31.137L38.5638 26.652C38.8591 26.4859 39.0252 26.1721 39.0252 25.8399V16.8513C39.0252 16.5191 38.8406 16.2053 38.5638 16.0392L30.7934 11.5542Z" fill="white"/>
</mask>
<g mask="url(#mask1_16_45)">
<path fill-rule="evenodd" clip-rule="evenodd" d="M38.6008 26.6519C38.8223 26.5227 38.9884 26.3013 39.0622 26.0613L30.4982 11.4434C30.2767 11.4065 30.0368 11.4249 29.8337 11.5541L22.0818 16.0207L30.4428 31.2662C30.5536 31.2477 30.6828 31.2108 30.7935 31.1555L38.6008 26.6519Z" fill="url(#paint2_linear_16_45)"/>
<path fill-rule="evenodd" clip-rule="evenodd" d="M38.6007 26.6519L30.8119 31.1369C30.7011 31.1923 30.5904 31.2292 30.4612 31.2477L30.6088 31.5245L39.2467 26.5227V26.4119L39.0252 26.0428C38.9883 26.3012 38.8222 26.5227 38.6007 26.6519Z" fill="url(#paint3_linear_16_45)"/>
<path fill-rule="evenodd" clip-rule="evenodd" d="M38.6007 26.6519L30.8119 31.1369C30.7011 31.1923 30.5904 31.2292 30.4612 31.2477L30.6088 31.5245L39.2467 26.5227V26.4119L39.0252 26.0428C38.9883 26.3012 38.8222 26.5227 38.6007 26.6519Z" fill="url(#paint4_linear_16_45)"/>
</g>
<defs>
<linearGradient id="paint0_linear_16_45" x1="1208.44" y1="358.229" x2="356.694" y2="1696.51" gradientUnits="userSpaceOnUse">
<stop stop-color="#41873F"/>
<stop offset="0.3288" stop-color="#418B3D"/>
<stop offset="0.6352" stop-color="#419637"/>
<stop offset="0.9319" stop-color="#3FA92D"/>
<stop offset="1" stop-color="#3FAE2A"/>
</linearGradient>
<linearGradient id="paint1_linear_16_45" x1="757.44" y1="1105.1" x2="2890.49" y2="-53.7808" gradientUnits="userSpaceOnUse">
<stop offset="0.1376" stop-color="#41873F"/>
<stop offset="0.4032" stop-color="#54A044"/>
<stop offset="0.7136" stop-color="#66B848"/>
<stop offset="0.9081" stop-color="#6CC04A"/>
</linearGradient>
<linearGradient id="paint2_linear_16_45" x1="-52.4421" y1="1003.35" x2="1745.58" y2="1003.35" gradientUnits="userSpaceOnUse">
<stop offset="0.0919165" stop-color="#6CC04A"/>
<stop offset="0.2864" stop-color="#66B848"/>
<stop offset="0.5968" stop-color="#54A044"/>
<stop offset="0.8624" stop-color="#41873F"/>
</linearGradient>
<linearGradient id="paint3_linear_16_45" x1="-882.011" y1="301.639" x2="916.016" y2="301.639" gradientUnits="userSpaceOnUse">
<stop offset="0.0919165" stop-color="#6CC04A"/>
<stop offset="0.2864" stop-color="#66B848"/>
<stop offset="0.5968" stop-color="#54A044"/>
<stop offset="0.8624" stop-color="#41873F"/>
</linearGradient>
<linearGradient id="paint4_linear_16_45" x1="1177.97" y1="-1130.98" x2="722.458" y2="1255.88" gradientUnits="userSpaceOnUse">
<stop stop-color="#41873F"/>
<stop offset="0.3288" stop-color="#418B3D"/>
<stop offset="0.6352" stop-color="#419637"/>
<stop offset="0.9319" stop-color="#3FA92D"/>
<stop offset="1" stop-color="#3FAE2A"/>
</linearGradient>
</defs>
</svg>
