<svg viewBox="0 0 68 66" fill="none" xmlns="http://www.w3.org/2000/svg">
<path d="M3.44448 3.27773H64.5556V62.7221H3.44448V3.27773Z" fill="url(#paint0_radial_16_292)"/>
<path d="M3.44448 3.27773H64.5556V62.7221H3.44448V3.27773ZM0.666748 65.5H67.3333V0.5H0.666748V65.5ZM45.6111 27.1666C43.4166 27.1666 42.6667 28.2777 42.6667 29.1943C42.6667 30.1943 43.1667 30.8888 46.1112 32.4166C50.4722 34.5277 51.8334 36.5555 51.8334 39.5277C51.8334 43.9721 48.4445 46.361 43.8611 46.361C41.4445 46.361 39.3611 45.861 38.1667 45.1666C37.9723 45.0833 37.9445 44.9444 37.9445 44.7221V40.6388C37.9445 40.3611 38.0834 40.2776 38.2779 40.4166C40.0279 41.5556 42.0278 42.0555 43.8611 42.0555C46.0556 42.0555 46.9723 41.1388 46.9723 39.8888C46.9723 38.8888 46.3334 37.9999 43.5277 36.5555C39.5833 34.6666 37.9445 32.75 37.9445 29.5555C37.9445 25.9721 40.7501 23 45.6111 23C48 23 49.6667 23.3611 50.5833 23.7777C50.8055 23.9166 50.8611 24.1388 50.8611 24.3332V28.1387C50.8611 28.3609 50.7222 28.4999 50.4444 28.4164C49.2222 27.6389 47.4166 27.1666 45.6111 27.1666ZM21.7222 30.4722C22.3611 30.5277 22.8612 30.5277 23.9723 30.5277C27.2224 30.5277 30.2779 29.3889 30.2779 24.9722C30.2779 21.4445 28.0834 19.6666 24.389 19.6666C23.2779 19.6666 22.2223 19.7222 21.7222 19.75V30.4722ZM16.7779 15.7222C16.7779 15.5277 17.1669 15.3888 17.3889 15.3888C19.1668 15.3054 21.8057 15.2499 24.5556 15.2499C32.25 15.2499 35.25 19.4721 35.25 24.861C35.25 31.9165 30.1389 34.9443 23.8612 34.9443C22.8056 34.9443 22.4446 34.8888 21.6945 34.8888V45.5555C21.6945 45.7777 21.6111 45.8887 21.3612 45.8887H17.1112C16.889 45.8887 16.7778 45.8054 16.7778 45.5555L16.7779 15.7222Z" fill="#31C5F0"/>
<defs>
<radialGradient id="paint0_radial_16_292" cx="0" cy="0" r="1" gradientUnits="userSpaceOnUse" gradientTransform="translate(22.6235 15.0666) scale(50.6665 49.1691)">
<stop stop-color="#34364E" stop-opacity="0.98"/>
<stop offset="1" stop-color="#0C0824"/>
</radialGradient>
</defs>
</svg>
