<svg viewBox="0 0 70 70" fill="none" xmlns="http://www.w3.org/2000/svg">
<path d="M69.7138 39.4442C72.1633 20.2677 58.6208 2.73582 39.4792 0.286257C20.3376 -2.1633 2.73582 11.3793 0.286257 30.5208C-2.1633 49.6624 11.3793 67.2292 30.5208 69.7138C49.6974 72.1633 67.2292 58.6208 69.7138 39.4442Z" fill="#FF6C37"/>
<path d="M47.6328 22.4722L32.8654 37.2395L28.7012 33.0753C43.2236 18.5529 44.6583 19.8126 47.6328 22.4722Z" fill="white"/>
<path d="M32.8653 37.5896C32.7604 37.5896 32.6904 37.5546 32.6204 37.4846L28.4211 33.3204C28.2812 33.1804 28.2812 32.9705 28.4211 32.8305C43.1885 18.0631 44.7282 19.4629 47.8426 22.2624C47.9126 22.3324 47.9476 22.4024 47.9476 22.5073C47.9476 22.6123 47.9126 22.6823 47.8426 22.7523L33.0753 37.4846C33.0403 37.5546 32.9353 37.5896 32.8653 37.5896ZM29.191 33.0754L32.8653 36.7498L47.1078 22.5073C44.5182 20.1978 42.7686 19.4979 29.191 33.0754Z" fill="#FF6C37"/>
<path d="M37.0996 41.4739L33.0753 37.4496L47.8427 22.6823C51.797 26.6715 45.883 33.1454 37.0996 41.4739Z" fill="white"/>
<path d="M37.0996 41.8236C36.9946 41.8236 36.9246 41.7886 36.8546 41.7187L32.8304 37.6944C32.7604 37.6244 32.7604 37.5544 32.7604 37.4494C32.7604 37.3444 32.7954 37.2745 32.8654 37.2045L47.6327 22.4371C47.7727 22.2972 47.9826 22.2972 48.1226 22.4371C49.0324 23.277 49.5224 24.4668 49.4874 25.6915C49.4174 29.5758 45.0082 34.51 37.3795 41.7187C37.2746 41.7886 37.1696 41.8236 37.0996 41.8236ZM33.5652 37.4494C35.8048 39.724 36.7497 40.6339 37.0996 40.9838C42.9785 35.3848 48.6825 29.6458 48.7175 25.6915C48.7525 24.7817 48.4026 23.8719 47.8077 23.172L33.5652 37.4494Z" fill="#FF6C37"/>
<path d="M28.771 33.1802L31.7455 36.1547C31.8155 36.2247 31.8155 36.2947 31.7455 36.3647C31.7105 36.3997 31.7105 36.3997 31.6755 36.3997L25.5166 37.7294C25.2017 37.7644 24.9217 37.5545 24.8518 37.2395C24.8168 37.0645 24.8867 36.8896 24.9917 36.7846L28.5611 33.2152C28.6311 33.1452 28.7361 33.1103 28.771 33.1802Z" fill="white"/>
<path d="M25.4118 38.0795C24.8869 38.0795 24.502 37.6595 24.502 37.1346C24.502 36.8897 24.6069 36.6447 24.7819 36.4698L28.3513 32.9004C28.5612 32.7254 28.8412 32.7254 29.0511 32.9004L32.0256 35.8749C32.2356 36.0498 32.2356 36.3648 32.0256 36.5747C31.9556 36.6447 31.8856 36.6797 31.7806 36.7147L25.6218 38.0445C25.5518 38.0445 25.4818 38.0795 25.4118 38.0795ZM28.6662 33.5653L25.2368 36.9947C25.1668 37.0646 25.1318 37.1696 25.2018 37.2746C25.2368 37.3796 25.3418 37.4146 25.4468 37.3796L31.2207 36.1198L28.6662 33.5653Z" fill="#FF6C37"/>
<path d="M55.4363 14.2838C53.1967 12.1142 49.5924 12.1842 47.4228 14.4588C45.2532 16.7334 45.3231 20.3028 47.5977 22.4724C49.4524 24.2571 52.2519 24.572 54.4565 23.2422L50.4672 19.253L55.4363 14.2838Z" fill="white"/>
<path d="M51.517 24.3968C48.1926 24.3968 45.498 21.7023 45.498 18.3779C45.498 15.0535 48.1926 12.359 51.517 12.359C53.0567 12.359 54.5614 12.9539 55.6812 14.0387C55.7512 14.1087 55.7862 14.1787 55.7862 14.2837C55.7862 14.3886 55.7512 14.4586 55.6812 14.5286L50.9571 19.2528L54.6664 22.9621C54.8064 23.1021 54.8064 23.312 54.6664 23.452C54.6314 23.487 54.6314 23.487 54.5964 23.522C53.6866 24.0819 52.6018 24.3968 51.517 24.3968ZM51.517 13.0939C48.5775 13.0939 46.1979 15.4734 46.2329 18.4129C46.2329 21.3524 48.6125 23.732 51.552 23.697C52.3568 23.697 53.1617 23.522 53.8965 23.1371L50.2222 19.4977C50.1522 19.4277 50.1172 19.3577 50.1172 19.2528C50.1172 19.1478 50.1522 19.0778 50.2222 19.0078L54.9114 14.3187C53.9665 13.5138 52.7767 13.0939 51.517 13.0939Z" fill="#FF6C37"/>
<path d="M55.5412 14.3887L55.4713 14.3187L50.4672 19.2528L54.4215 23.2071C54.8064 22.9622 55.1913 22.6822 55.5063 22.3673C57.7459 20.1627 57.7459 16.5933 55.5412 14.3887Z" fill="white"/>
<path d="M54.4565 23.5921C54.3515 23.5921 54.2816 23.5571 54.2116 23.4871L50.2223 19.4978C50.1523 19.4278 50.1173 19.3579 50.1173 19.2529C50.1173 19.1479 50.1523 19.0779 50.2223 19.0079L55.1914 14.0388C55.3314 13.8988 55.5413 13.8988 55.6813 14.0388L55.7863 14.1088C58.1309 16.4534 58.1309 20.2327 55.8213 22.6123C55.4713 22.9622 55.0864 23.2772 54.6665 23.5221C54.5615 23.5571 54.4915 23.5921 54.4565 23.5921ZM50.9572 19.2529L54.4915 22.7872C54.7715 22.6123 55.0514 22.3673 55.2614 22.1574C57.256 20.1627 57.361 16.9083 55.4363 14.8087L50.9572 19.2529Z" fill="#FF6C37"/>
<path d="M48.2276 23.1022C47.3877 22.2623 46.023 22.2623 45.1831 23.1022L31.9905 36.2948L34.1951 38.4994L48.1576 26.2516C49.0674 25.4817 49.1374 24.117 48.3675 23.2072C48.2975 23.1722 48.2626 23.1372 48.2276 23.1022Z" fill="white"/>
<path d="M34.1601 38.8493C34.0552 38.8493 33.9852 38.8143 33.9152 38.7443L31.7106 36.5397C31.5706 36.3997 31.5706 36.1898 31.7106 36.0498L44.9032 22.8572C45.883 21.8774 47.4577 21.8774 48.4376 22.8572C49.4174 23.837 49.4174 25.4117 48.4376 26.3915C48.4026 26.4265 48.3676 26.4615 48.3326 26.4965L34.3701 38.7443C34.3351 38.8143 34.2651 38.8493 34.1601 38.8493ZM32.4804 36.2948L34.1951 38.0095L47.9127 25.9716C48.6825 25.3417 48.7525 24.1869 48.1226 23.4171C47.4927 22.6472 46.3379 22.5772 45.5681 23.2071C45.5331 23.2421 45.4981 23.2771 45.4281 23.3121L32.4804 36.2948Z" fill="#FF6C37"/>
<path d="M21.8773 51.3072C21.7373 51.3772 21.6673 51.5171 21.7023 51.6571L22.2972 54.1766C22.4372 54.5266 22.2272 54.9465 21.8423 55.0515C21.5624 55.1565 21.2474 55.0515 21.0725 54.8415L17.2231 51.0272L29.7859 38.4645L34.1251 38.5345L37.0646 41.4739C36.3647 42.0688 32.1305 46.1631 21.8773 51.3072Z" fill="white"/>
<path d="M21.5975 55.4015C21.3176 55.4015 21.0376 55.2965 20.8627 55.0866L17.0483 51.2723C16.9784 51.2023 16.9434 51.1323 16.9434 51.0273C16.9434 50.9223 16.9784 50.8523 17.0483 50.7823L29.6111 38.2196C29.6811 38.1496 29.786 38.1146 29.856 38.1146L34.1953 38.1846C34.3002 38.1846 34.3702 38.2196 34.4402 38.2896L37.3797 41.2291C37.4497 41.2991 37.4847 41.404 37.4847 41.509C37.4847 41.614 37.4497 41.684 37.3447 41.754L37.0997 41.9639C33.3904 45.2183 28.3513 48.4728 22.0874 51.5872L22.6823 54.0718C22.7873 54.5267 22.5773 55.0166 22.1574 55.2615C21.9475 55.3665 21.7725 55.4015 21.5975 55.4015ZM17.7482 51.0273L21.3526 54.5967C21.4575 54.7716 21.6675 54.8416 21.8425 54.7366C22.0174 54.6317 22.0874 54.4217 21.9825 54.2467L21.3876 51.7272C21.3176 51.4122 21.4575 51.1323 21.7375 50.9923C27.9314 47.8779 32.9355 44.6584 36.6098 41.474L34.0203 38.8845L29.996 38.8145L17.7482 51.0273Z" fill="#FF6C37"/>
<path d="M14.2489 54.0367L17.2583 51.0272L21.7375 55.5064L14.5988 55.0165C14.2839 54.9815 14.0739 54.7016 14.1089 54.3866C14.1089 54.2466 14.1439 54.1067 14.2489 54.0367Z" fill="white"/>
<path d="M21.7374 55.8212L14.5637 55.3312C14.0388 55.2962 13.6888 54.8413 13.7238 54.3164C13.7588 54.1065 13.8288 53.8965 14.0038 53.7565L17.0132 50.7471C17.1532 50.6071 17.3632 50.6071 17.5032 50.7471L21.9824 55.2263C22.0873 55.3312 22.1223 55.4712 22.0523 55.6112C21.9824 55.7512 21.8774 55.8212 21.7374 55.8212ZM17.2582 51.5169L14.4937 54.2814C14.3887 54.3514 14.3887 54.5264 14.4937 54.5964C14.5287 54.6314 14.5637 54.6664 14.6337 54.6664L20.8276 55.0863L17.2582 51.5169Z" fill="#FF6C37"/>
<path d="M28.561 40.0741C28.351 40.0741 28.2111 39.8992 28.2111 39.7242C28.2111 39.6192 28.2461 39.5492 28.316 39.4792L31.7104 36.0848C31.8504 35.9449 32.0604 35.9449 32.2003 36.0848L34.4049 38.2894C34.5099 38.3944 34.5449 38.4994 34.5099 38.6394C34.4749 38.7444 34.37 38.8493 34.23 38.8843L28.631 40.0741C28.596 40.0741 28.561 40.0741 28.561 40.0741ZM31.9554 36.8197L29.6458 39.1293L33.4251 38.3244L31.9554 36.8197Z" fill="#FF6C37"/>
<path d="M34.1252 38.5342L30.2759 39.3741C29.996 39.4441 29.716 39.2691 29.646 38.9892C29.6111 38.8142 29.646 38.6392 29.786 38.4992L31.9206 36.3646L34.1252 38.5342Z" fill="white"/>
<path d="M30.2058 39.7242C29.7159 39.7242 29.3309 39.3393 29.3309 38.8493C29.3309 38.6044 29.4359 38.3944 29.5759 38.2195L31.7105 36.0848C31.8505 35.9449 32.0604 35.9449 32.2004 36.0848L34.405 38.2894C34.51 38.3944 34.545 38.4994 34.51 38.6394C34.475 38.7444 34.37 38.8493 34.2301 38.8843L30.3807 39.7242C30.3108 39.7242 30.2408 39.7242 30.2058 39.7242ZM31.9555 36.8197L30.0658 38.7094C29.9958 38.7794 29.9958 38.8493 30.0308 38.9193C30.0658 38.9893 30.1358 39.0243 30.2408 39.0243L33.4602 38.3244L31.9555 36.8197Z" fill="#FF6C37"/>
<path d="M55.5763 17.7482C55.5063 17.5383 55.2613 17.4333 55.0513 17.5033C54.8414 17.5733 54.7364 17.8182 54.8064 18.0282C54.8064 18.0632 54.8414 18.0982 54.8414 18.1332C55.0514 18.5531 54.9814 19.078 54.7014 19.4629C54.5614 19.6379 54.5964 19.8829 54.7364 20.0228C54.9114 20.1628 55.1563 20.1278 55.2963 19.9528C55.8212 19.288 55.9262 18.4481 55.5763 17.7482Z" fill="#FF6C37"/>
</svg>
