<svg viewBox="0 0 68 60" fill="none" xmlns="http://www.w3.org/2000/svg">
<path d="M34.0014 36.1647C37.4774 36.1647 40.2953 33.3468 40.2953 29.8708C40.2953 26.3948 37.4774 23.5769 34.0014 23.5769C30.5254 23.5769 27.7075 26.3948 27.7075 29.8708C27.7075 33.3468 30.5254 36.1647 34.0014 36.1647Z" fill="#00D8FF"/>
<path fill-rule="evenodd" clip-rule="evenodd" d="M34.4639 16.6042C45.195 16.6772 56.9029 17.4601 64.9396 24.6268C65.1757 24.8376 65.4034 25.0569 65.6255 25.2832C67.5215 27.2158 68.5124 30.336 66.9818 32.9039C63.8419 38.1759 56.8199 40.4754 50.0215 41.8907C39.854 44.0074 29.2227 44.0243 19.0594 42.1606C13.2111 41.0868 7.23065 39.2048 3.07455 35.2679C1.45681 33.7359 0.0737838 31.7204 0.290233 29.4772C0.641611 25.8482 4.12306 23.5193 7.05356 21.9423C15.1929 17.5627 25.1102 16.5831 34.4639 16.6042ZM33.6852 18.2528C23.5318 18.3217 12.5421 18.9696 4.70214 25.4617C4.42806 25.688 4.16382 25.9255 3.90943 26.1743C3.74498 26.3345 3.58616 26.5018 3.43296 26.6732C2.05696 28.2193 1.5833 30.7028 2.882 32.5595C4.18912 34.4275 6.17371 35.7753 8.21732 36.8744C15.8605 40.9842 24.8923 41.7136 33.6979 41.7445C42.613 41.7769 51.8065 40.9645 59.6816 36.8927C62.8187 35.2694 66.3493 32.8856 66.2242 29.816C66.109 26.9993 63.3626 25.2593 61.3063 24.0168C60.7498 23.6809 60.1777 23.3703 59.5972 23.0779C51.7798 19.1608 42.6186 18.2331 33.6852 18.2528Z" fill="#00D8FF"/>
<path fill-rule="evenodd" clip-rule="evenodd" d="M48.2169 0.000848825C52.1425 0.10064 54.1763 4.82035 54.4447 8.30602C54.4981 8.99894 54.5178 9.69467 54.5094 10.3904C54.5009 11.1437 54.4602 11.8971 54.3941 12.6476C53.5663 21.9409 49.323 30.7914 44.3264 38.9645C39.4395 46.959 33.4801 54.9311 25.3731 58.636C22.6928 59.8616 19.5051 60.6178 17.1326 59.2502C13.8802 57.3767 13.5246 52.9943 13.5851 49.6702C13.6005 48.8536 13.6539 48.037 13.7383 47.2232C14.9878 35.1921 21.0863 23.7948 28.7182 13.9759C33.1709 8.24699 38.4683 2.5645 45.0671 0.506833C46.1058 0.182159 46.9309 -0.0146118 48.2169 0.000848825ZM48.0286 1.64811C43.4199 1.7212 39.2821 5.13659 35.6179 8.68551C25.9845 18.0139 18.8853 30.4204 16.0293 43.4312C15.8086 44.4389 15.6231 45.4537 15.4867 46.4755C15.3813 47.2668 15.304 48.0623 15.2633 48.8607C15.2309 49.496 15.2197 50.1327 15.2394 50.7694C15.2534 51.2669 15.2857 51.7645 15.3406 52.2592C15.3813 52.6373 15.4361 53.014 15.505 53.3878C15.557 53.6647 15.6174 53.9402 15.6877 54.2143C15.7453 54.4363 15.81 54.657 15.8831 54.8763C16.4579 56.6093 17.9394 58.2649 19.9282 58.3198C24.5677 58.4463 28.9361 55.0632 32.7127 51.3864C39.3425 44.9337 44.2829 36.8253 48.1424 28.3022C51.257 21.4209 54.106 13.9407 52.515 6.36641C52.4545 6.07969 52.3842 5.79578 52.3041 5.51467C52.2381 5.28558 52.1636 5.05929 52.0821 4.83581C51.4636 3.1506 50.0089 1.64389 48.0286 1.64811Z" fill="#00D8FF"/>
<path fill-rule="evenodd" clip-rule="evenodd" d="M20.098 0.062686C25.1073 0.159666 29.6063 3.5596 33.6008 7.36713C40.8898 14.3146 46.2659 23.1524 50.3447 32.4541C53.5042 39.6602 56.4108 47.7489 53.8275 55.3527C53.0137 57.7491 50.9547 59.9417 48.2097 59.9979C43.1765 60.0991 38.5117 56.4392 34.4638 52.4995C24.3089 42.6132 16.7698 29.5616 14.1864 15.7201C14.0009 14.7306 13.8533 13.7327 13.7521 12.7306C13.6692 11.9126 13.6172 11.0903 13.6032 10.2681C13.5919 9.60471 13.606 8.94131 13.6524 8.28072C13.6833 7.83939 13.7283 7.40086 13.7887 6.96375C13.8463 6.55334 13.9194 6.14434 14.0108 5.73955C14.0712 5.4711 14.1387 5.20546 14.216 4.94122C14.9735 2.35086 16.9441 0.0430088 20.098 0.062686ZM19.9083 1.71135C16.975 1.77601 15.6327 5.23497 15.3629 7.66229C15.308 8.15984 15.2743 8.66161 15.2589 9.16338C15.2392 9.80429 15.2476 10.4466 15.2799 11.0875C15.7409 20.3625 19.8872 29.3297 24.8908 37.5407C29.6021 45.271 35.2916 52.9704 43.1175 56.9283C45.3776 58.071 48.1239 58.9691 50.0762 57.8897C52.5246 56.5348 52.8254 53.3063 52.9561 50.9001C52.9912 50.2451 52.9955 49.5873 52.9744 48.9309C52.9491 48.1073 52.8844 47.2851 52.7874 46.4671C51.8851 38.8253 48.5006 31.5939 44.613 24.7603C39.7752 16.2598 33.8482 7.78738 25.4601 3.36142C23.7228 2.44503 21.8423 1.69589 19.9083 1.71135Z" fill="#00D8FF"/>
</svg>
