<svg viewBox="0 0 58 60" fill="none" xmlns="http://www.w3.org/2000/svg">
<g clip-path="url(#clip0_14_420)">
<path d="M28.8072 11.5385C32.0028 11.5385 34.5934 8.95549 34.5934 5.76923C34.5934 2.58297 32.0028 0 28.8072 0C25.6115 0 23.0209 2.58297 23.0209 5.76923C23.0209 8.95549 25.6115 11.5385 28.8072 11.5385Z" fill="white"/>
<path d="M28.8072 60C32.0028 60 34.5934 57.417 34.5934 54.2308C34.5934 51.0445 32.0028 48.4615 28.8072 48.4615C25.6115 48.4615 23.0209 51.0445 23.0209 54.2308C23.0209 57.417 25.6115 60 28.8072 60Z" fill="white"/>
<path fill-rule="evenodd" clip-rule="evenodd" d="M27.4557 10.5517C27.1174 13.2521 27.7035 15.3213 28.9512 16.9229C30.1314 18.4378 31.7822 19.3639 33.1748 20.0703C33.5075 20.2391 33.8223 20.3945 34.1202 20.5415C35.1871 21.0682 36.0387 21.4886 36.7297 22.0374C37.4767 22.6307 37.8582 23.2438 37.8582 24.2308C37.8582 24.8173 37.6964 25.2136 37.4407 25.5335C37.1603 25.8843 36.6838 26.2434 35.9138 26.5748C34.5884 27.1452 32.725 27.4988 30.4288 27.7419L25.4699 28.1809C24.0952 28.3453 22.6775 28.6064 21.427 29.0882C20.1609 29.576 18.9313 30.3315 18.0264 31.5429C17.1102 32.7695 16.6418 34.3095 16.6418 36.1539C16.6418 38.4282 17.8454 39.9315 19.2678 40.965C20.3042 41.7181 21.6225 42.3306 22.7703 42.8639L22.7718 42.8646C23.0652 43.001 23.3476 43.1322 23.6112 43.2592C25.0464 43.9508 26.1234 44.5926 26.7964 45.4229C27.3819 46.1453 27.7775 47.1573 27.4682 48.9299L30.9161 49.5316C31.3786 46.8812 30.8101 44.8163 29.5153 43.219C28.3081 41.7296 26.5885 40.8088 25.1307 40.1062C24.7505 39.923 24.3904 39.755 24.0494 39.5959C22.9569 39.086 22.0601 38.6676 21.3251 38.1335C20.4813 37.5204 20.1418 36.9564 20.1418 36.1539C20.1418 34.9213 20.4449 34.1537 20.8305 33.6374C21.2274 33.1061 21.8299 32.6837 22.6852 32.3542C24.2465 31.7527 26.1975 31.6028 28.2853 31.4424C28.6325 31.4157 28.9835 31.3888 29.337 31.3594L34.2419 30.7086C35.3546 30.4777 36.3886 30.1808 37.2974 29.7897C38.3963 29.3167 39.4211 28.6616 40.1748 27.7186C40.9532 26.7446 41.3582 25.5673 41.3582 24.2308C41.3582 21.9485 40.2932 20.3981 38.9065 19.2967C37.8911 18.4902 36.5955 17.8544 35.4886 17.3112C35.2331 17.1858 34.9877 17.0654 34.7582 16.9489C33.4022 16.2611 32.3767 15.6248 31.7123 14.7719C31.1154 14.0057 30.6886 12.9017 30.9286 10.9868L27.4557 10.5517ZM35.3216 36.5094C34.4502 35.4944 33.4048 34.5474 32.2461 33.598C33.9689 33.4496 34.7628 33.4776 36.893 33.0644C37.2714 33.4425 37.6346 33.8305 37.9772 34.2295C39.8381 36.3971 41.19 38.9975 41.19 42.2869H37.69C37.69 40.0645 36.8094 38.2424 35.3216 36.5094ZM19.8297 17.1946C19.8297 20.7109 21.214 23.4803 23.1446 25.7904C24.8468 25.384 25.7764 25.3895 27.4518 25.2374C24.9734 22.9172 23.3297 20.4786 23.3297 17.1946H19.8297Z" fill="white"/>
</g>
<defs>
<clipPath id="clip0_14_420">
<rect width="57" height="60" fill="white" transform="translate(0.5)"/>
</clipPath>
</defs>
</svg>
