<svg viewBox="0 0 74 56" fill="none" xmlns="http://www.w3.org/2000/svg">
<path d="M63.4999 32.1442C61.1947 32.1472 58.9205 32.6743 56.849 33.6857C56.2005 32.6094 55.6996 31.4508 55.36 30.241C55.1648 29.2926 55.1197 28.3196 55.2263 27.3573C55.4504 26.2984 55.741 25.2547 56.0966 24.2324C56.0835 24.0987 55.9367 23.4669 54.4608 23.4459C52.9849 23.4249 51.7134 23.7264 51.5771 24.117C51.3208 24.8305 51.1149 25.5611 50.961 26.3034C49.7395 29.3169 48.2359 32.2082 46.4703 34.9388C45.4811 33.3171 45.0742 31.4067 45.3168 29.5227C45.5409 28.4638 45.8316 27.42 46.1872 26.3978C46.1741 26.2641 46.0273 25.6323 44.5513 25.6113C43.0754 25.5903 41.804 25.8918 41.6676 26.2824C41.5313 26.673 41.3583 27.5932 41.0516 28.4688C40.7449 29.3444 37.1638 37.3453 36.2253 39.4085C35.743 40.4571 35.3261 41.3117 35.0325 41.8885C35.0186 41.9259 35.001 41.9619 34.9801 41.996C34.7179 42.4914 34.579 42.7615 34.579 42.7615V42.7746C34.3771 43.1363 34.1622 43.4719 34.0547 43.4719C33.8672 42.7229 33.8762 41.9382 34.0809 41.1938C34.6052 38.4176 35.8898 34.1025 35.8767 33.9531C35.8767 33.8718 36.1178 33.122 35.0456 32.734C34.7969 32.6157 34.5177 32.5774 34.2463 32.6243C33.975 32.6713 33.7248 32.8012 33.5304 32.9962C33.436 32.9962 33.3705 33.2243 33.3705 33.2243C33.3705 33.2243 34.537 28.3718 31.1448 28.3718C29.8237 28.6375 28.5692 29.1647 27.4549 29.9224C26.3407 30.6801 25.3892 31.653 24.6564 32.7839C23.7441 33.2793 21.8016 34.3384 19.7227 35.4788C18.9362 35.9218 18.1131 36.3649 17.3502 36.7896C17.2978 36.7371 17.2427 36.669 17.1903 36.6166C13.0614 32.2176 5.47198 29.1137 5.79968 23.2283C5.92027 21.0839 6.65692 15.4528 20.3728 8.61321C31.6612 3.0503 40.6452 4.59177 42.1998 8.01026C44.4255 12.8916 37.3867 21.9543 25.7234 23.2676C24.4331 23.5294 23.1005 23.4978 21.824 23.1752C20.5476 22.8526 19.36 22.2472 18.349 21.4037C17.7329 20.7326 17.6386 20.6933 17.4105 20.827C17.0356 21.0288 17.2768 21.6318 17.4105 21.9805C17.8554 22.7857 18.4572 23.4935 19.1804 24.0622C19.9035 24.6309 20.7333 25.0489 21.6207 25.2915C26.209 26.283 30.9928 25.8089 35.2973 23.9361C42.3755 21.2019 47.8807 13.5994 46.2658 7.23166C44.6431 0.769556 33.9184 -1.36176 23.7677 2.25073C17.4098 4.3901 11.5352 7.75991 6.47866 12.168C0.886903 17.398 0.00344133 21.9411 0.365214 23.847C1.67599 30.6054 10.9851 35.0017 14.7103 38.2655C14.5216 38.373 14.3485 38.4674 14.2017 38.546C12.3378 39.4714 5.23342 43.1861 3.45339 47.1132C1.44267 51.5698 3.77584 54.755 5.31731 55.185C7.64002 55.7409 10.0784 55.5578 12.292 54.6611C14.5056 53.7644 16.3839 52.1988 17.6648 50.183C18.7555 48.5111 19.426 46.6002 19.619 44.6133C19.8121 42.6263 19.5221 40.6222 18.7737 38.7715C18.7611 38.7415 18.7433 38.714 18.7213 38.6902L20.1815 37.833C21.1331 37.2693 22.0716 36.7476 22.8764 36.3177C22.3307 37.8918 22.0103 39.5352 21.9248 41.199C21.7395 43.7492 22.5199 46.2758 24.1112 48.2772C24.3533 48.4856 24.6344 48.6439 24.9381 48.7429C25.2419 48.8419 25.5623 48.8796 25.8807 48.8539C27.4536 48.8539 28.1746 47.5431 28.9636 45.986C29.9284 44.0827 30.7987 41.8701 30.7987 41.8701C30.7987 41.8701 29.7134 47.8499 32.6626 47.8499C33.7349 47.8499 34.8202 46.4552 35.3052 45.7526V45.7657C35.3052 45.7657 35.3314 45.7264 35.3864 45.632L35.5594 45.3515V45.3253C35.9894 44.5756 36.9541 42.8716 38.3881 40.0429C40.2389 36.3963 42.0216 31.8375 42.0216 31.8375C42.1935 32.8394 42.4308 33.8289 42.732 34.7998C43.1638 35.9767 43.6744 37.1232 44.2604 38.2314C43.8304 38.8344 43.563 39.1699 43.563 39.1699L43.5761 39.183C43.2275 39.6392 42.8526 40.1347 42.4358 40.617C41.1956 41.9805 40.045 43.4227 38.991 44.9347C38.8345 45.1887 38.7806 45.4928 38.8405 45.7851C38.9005 46.0774 39.0696 46.3358 39.3135 46.5076C39.8654 46.7948 40.4944 46.8986 41.1093 46.8039C42.0358 46.7516 42.9469 46.5433 43.8042 46.1878C44.6326 45.8963 45.4142 45.4856 46.1243 44.9688C46.8563 44.4617 47.4455 43.7747 47.8353 42.974C48.2251 42.1733 48.4023 41.2858 48.35 40.3968C48.2675 39.277 47.9815 38.1816 47.5058 37.1645C47.6395 36.9757 47.768 36.7896 47.8938 36.6008C49.3843 34.3761 50.7276 32.0564 51.9153 29.6564C52.0872 30.6582 52.3245 31.6478 52.6257 32.6187C52.9818 33.6357 53.4202 34.6221 53.9365 35.5679C52.2218 36.8871 50.8713 38.6211 50.012 40.6065C49.1679 43.0472 49.8233 44.1456 51.0606 44.3999C51.7377 44.4466 52.4147 44.3079 53.0189 43.9988C53.9073 43.7069 54.7442 43.2769 55.4989 42.7248C56.2947 42.2551 56.9612 41.595 57.4385 40.8038C57.9158 40.0125 58.1889 39.1151 58.2332 38.1921C58.1737 37.2708 57.9656 36.3652 57.6171 35.5103C59.8798 34.6263 62.3331 34.3445 64.7372 34.6923C71.1181 35.4421 72.379 39.4242 72.1379 41.102C72.0247 41.6968 71.7856 42.2605 71.4365 42.7552C71.0874 43.2499 70.6365 43.6641 70.114 43.97C69.671 44.2505 69.5242 44.3449 69.5635 44.5467C69.6159 44.843 69.8257 44.8272 70.2058 44.7748C71.1675 44.4759 72.016 43.8925 72.6394 43.1016C73.2628 42.3106 73.6317 41.3493 73.6977 40.3444C73.8995 36.4121 70.1455 32.0996 63.5077 32.139L63.4999 32.1442ZM14.2673 48.7333C12.1491 51.0403 9.19982 51.9106 7.92575 51.174C6.5573 50.3875 7.09472 46.9795 9.69529 44.5362C11.2379 43.1476 12.9053 41.9041 14.6762 40.8215C14.9856 40.6328 15.4417 40.3654 15.987 40.035L16.1338 39.9538L16.4563 39.7519C16.9209 41.3086 16.963 42.9608 16.5783 44.5391C16.1936 46.1174 15.396 47.565 14.2673 48.7333ZM29.6846 38.2472C28.9479 40.0429 27.4064 44.6437 26.4679 44.3868C25.6631 44.1718 25.1572 40.6852 26.308 37.2405C26.8891 35.5822 27.7355 34.0293 28.8142 32.6423C29.9677 31.3551 31.2418 30.9252 31.5485 31.4495C31.2687 33.7955 30.6404 36.0866 29.6846 38.2472ZM42.4069 44.3344C42.0976 44.4943 41.804 44.5965 41.6703 44.5231C41.5759 44.4707 41.804 44.261 41.804 44.261C41.804 44.261 43.4005 42.5439 44.0297 41.7679C44.3914 41.3117 44.8161 40.7769 45.2775 40.1714V40.3444C45.2775 42.3944 43.293 43.776 42.4095 44.3396L42.4069 44.3344ZM52.222 42.0956C51.9939 41.9357 52.0332 41.3982 52.7987 39.7231C53.331 38.6472 54.0746 37.6897 54.9851 36.9075C55.1247 37.3044 55.1973 37.7216 55.2001 38.1423C55.2104 39.0377 54.9241 39.9113 54.3859 40.6269C53.8476 41.3424 53.0877 41.8598 52.2246 42.0982L52.222 42.0956Z" fill="#CD6799"/>
</svg>
