<svg viewBox="0 0 92 40" fill="none" xmlns="http://www.w3.org/2000/svg">
<path d="M62.0901 0L61.8037 1.49294C61.3608 4.32226 61.5212 5.13173 62.7354 6.18175L63.9076 7.15158L62.6934 12.5659C61.9679 15.7961 61.0783 18.5032 60.5132 19.3929C60.0282 20.1604 59.4631 21.2906 59.341 21.8977C59.1386 22.6231 58.4513 23.3524 57.4013 23.9977C56.4734 24.5246 54.6521 25.9374 53.3616 27.0714C52.3306 27.9992 51.6204 28.5682 51.2348 28.8125L49.9748 29.8091C49.57 30.4582 49.341 30.9813 49.2531 31.3784C49.1653 31.7869 49.2149 32.058 49.3448 32.2566C49.4708 32.4475 49.6884 32.5811 49.9862 32.6651C50.3388 32.7478 50.7017 32.7774 51.063 32.753C51.8803 32.6971 52.6893 32.5537 53.4761 32.3253C53.7434 32.2528 53.9534 32.184 54.1367 32.1229C54.4192 31.7755 55.0721 31.1187 56.2291 29.9771C59.2989 26.9492 60.4711 25.2921 59.2608 25.7388C58.814 25.8992 59.0164 25.4945 59.7839 24.685C61.4028 23.1081 62.3306 20.7255 64.2703 13.2531C65.8052 7.35395 65.8052 7.26995 66.9354 7.26995C67.4662 7.26995 68.9668 7.36159 68.9668 7.36159V0H65.5227H62.0901ZM76.7484 12.0848C76.504 12.0848 76.0993 12.4513 75.8587 12.856C75.4158 13.5815 75.9389 14.0244 82.6056 18.1863C86.5651 20.6949 89.7571 22.8331 89.6769 22.9973C89.5968 23.1157 86.3627 25.2195 82.4872 27.6441C75.454 32.0046 75.4158 32.0466 76.0611 32.9362C76.8705 33.9862 76.0611 34.349 85.1905 28.6522L91.819 24.4101V21.218L84.423 16.6514C80.4253 14.1466 76.9507 12.1268 76.7484 12.0848ZM15.3318 12.5315C15.1294 12.5315 11.6548 14.5934 7.6571 17.0561L0.180969 21.6228V24.8148L7.6151 29.4616C11.7388 32.0046 15.2134 34.1084 15.3738 34.1084C15.5342 34.1084 15.8587 33.7419 16.1833 33.299C16.6682 32.5315 16.2596 32.2069 9.43259 27.8847C2.93011 23.803 2.24282 23.2379 2.89193 22.795C3.29666 22.5124 6.36654 20.6109 9.68078 18.5529C17.2371 13.9061 16.8324 14.2268 16.2253 13.257C15.9847 12.8561 15.5762 12.4933 15.3356 12.5315H15.3318ZM48.4895 12.6193C47.3746 12.6117 44.9767 14.3108 37.7984 20.1718C37.4891 20.9087 37.4624 21.4166 37.6036 21.7449C37.6953 21.9702 37.8633 22.1268 38.0962 22.2413C38.3253 22.3559 38.6231 22.4246 38.9515 22.4513C39.6044 22.5086 40.3757 22.4055 40.9981 22.2833L41.4181 22.1879C41.5619 21.9951 41.7506 21.8404 41.9679 21.7373C42.4108 21.4929 44.2703 19.7976 46.1298 17.9801C49.402 14.6659 50.1695 13.1691 48.8369 12.6842C48.7276 12.6407 48.6071 12.6187 48.4895 12.6193ZM56.8744 14.9217C55.8931 14.9485 54.1252 16.0863 51.0973 18.5032C49.5777 19.7365 48.6155 20.4009 48.1 20.5384L46.0993 22.1191C45.3471 23.4937 45.2363 24.3452 45.4349 24.8148C45.4846 24.9307 45.5567 25.0355 45.6472 25.1233C45.7376 25.2112 45.8445 25.2802 45.9618 25.3265C46.2535 25.4416 46.5646 25.5 46.8782 25.4983C47.6276 25.4903 48.3725 25.3811 49.0928 25.1737C49.4681 25.073 49.8388 24.9558 50.2039 24.8224L50.3146 24.7766L50.517 24.6697C50.8988 24.1772 51.777 23.2493 52.8766 22.1802C56.3513 18.8278 58.1267 16.4452 57.764 15.5556C57.5998 15.1241 57.3173 14.9065 56.8744 14.9217ZM47.6189 19.0454C47.3364 19.076 46.7025 19.5647 45.5609 20.5651C43.9114 22.0237 42.113 22.8637 41.4906 22.4895C41.346 22.5222 41.2009 22.5527 41.0553 22.5811C40.4215 22.7071 39.6311 22.8102 38.9248 22.753C38.5919 22.7328 38.2657 22.6512 37.9626 22.5124C37.6766 22.3817 37.4484 22.1508 37.3211 21.8633C37.1798 21.5197 37.1798 21.092 37.3402 20.546L34.8583 22.585L29.2417 27.2318V34.7652L47.6456 20.2673C47.6421 20.1085 47.6627 19.9502 47.7067 19.7976C47.848 19.286 47.8404 19.0263 47.6189 19.0493V19.0454ZM55.538 21.4853C55.2592 21.4853 54.7934 21.8786 54.0489 22.669C53.037 23.7495 51.4448 24.7957 50.601 25.0095L50.4711 25.0783C50.3326 25.1355 50.1926 25.189 50.0511 25.2386C49.822 25.315 49.5242 25.4066 49.1806 25.4983C48.4933 25.6854 47.638 25.8572 46.8744 25.8381C46.5143 25.8376 46.1578 25.7676 45.8243 25.6319C45.51 25.5024 45.2582 25.256 45.1218 24.9446C44.9003 24.4139 44.9881 23.6693 45.4731 22.6117L29.2379 35.399V40H36.3704L51.4983 28.1176C51.8915 27.6823 52.4834 27.0867 53.2814 26.3421C55.4196 24.3604 55.9045 23.677 55.9045 22.6651C55.9045 21.8786 55.8167 21.4815 55.538 21.4815V21.4853ZM59.1386 28.9309L57.8442 30.2215C57.1187 30.9087 55.8243 31.7564 54.9385 32.1191L54.7629 32.1955L54.7514 32.2146L54.7132 32.2528C54.6789 32.2795 54.6636 32.2833 54.6369 32.2948C54.2832 32.4286 53.924 32.5471 53.5601 32.6499C52.7511 32.8853 51.919 33.0326 51.0783 33.089C50.6808 33.1144 50.2817 33.0797 49.8946 32.9859C49.5587 32.9119 49.2621 32.716 49.0622 32.436C48.8789 32.1535 48.8255 31.7755 48.9286 31.3097C49.0106 30.978 49.1324 30.6575 49.2913 30.3551L37.0844 40H53.3196L55.2592 37.7778C57.9244 34.6697 59.1386 32.4475 59.1386 30.546V28.9309Z" fill="#C0D70F"/>
</svg>
