<svg viewBox="0 0 58 60" fill="none" xmlns="http://www.w3.org/2000/svg">
<path d="M33.894 58.9914C32.3721 60.9213 29.2863 59.8639 29.2496 57.3996L28.7134 21.3576H52.7807C57.14 21.3576 59.5712 26.4276 56.8606 29.8654L33.894 58.9914Z" fill="url(#paint0_linear_236_847)"/>
<path d="M33.894 58.9914C32.3721 60.9213 29.2863 59.8639 29.2496 57.3996L28.7134 21.3576H52.7807C57.14 21.3576 59.5712 26.4276 56.8606 29.8654L33.894 58.9914Z" fill="url(#paint1_linear_236_847)" fill-opacity="0.2"/>
<path d="M24.106 0.99675C25.6279 -0.93335 28.7138 0.124205 28.7505 2.58845L28.9855 38.6304H5.21932C0.859938 38.6304 -1.57137 33.5605 1.13942 30.1227L24.106 0.99675Z" fill="#3ECF8E"/>
<defs>
<linearGradient id="paint0_linear_236_847" x1="639.682" y1="820.499" x2="2022.58" y2="1396.48" gradientUnits="userSpaceOnUse">
<stop stop-color="#249361"/>
<stop offset="1" stop-color="#3ECF8E"/>
</linearGradient>
<linearGradient id="paint1_linear_236_847" x1="87.0277" y1="-486.956" x2="982.561" y2="1187.2" gradientUnits="userSpaceOnUse">
<stop/>
<stop offset="1" stop-opacity="0"/>
</linearGradient>
</defs>
</svg>
