<svg viewBox="0 0 68 40" fill="none" xmlns="http://www.w3.org/2000/svg">
<path d="M17 13.3333C19.2667 4.44444 24.9333 0 34 0C47.6 0 49.3 10 56.1 11.6667C60.6333 12.7778 64.6 11.1111 68 6.66667C65.7333 15.5556 60.0667 20 51 20C37.4 20 35.7 10 28.9 8.33333C24.3667 7.22222 20.4 8.88889 17 13.3333ZM0 33.3333C2.26667 24.4444 7.93333 20 17 20C30.6 20 32.3 30 39.1 31.6667C43.6333 32.7778 47.6 31.1111 51 26.6667C48.7333 35.5556 43.0667 40 34 40C20.4 40 18.7 30 11.9 28.3333C7.36667 27.2222 3.4 28.8889 0 33.3333Z" fill="#44A8B3"/>
</svg>
