<svg viewBox="0 0 64 64" fill="none" xmlns="http://www.w3.org/2000/svg">
<path d="M0 64H64V0H0V64Z" fill="#007ACC"/>
<path d="M14.9615 32.2244L14.9401 34.9951H23.7462V60.0175H29.975V34.9951H38.7811V32.2781C38.7811 30.7746 38.7489 29.5181 38.706 29.4859C38.6737 29.4429 33.3149 29.4215 26.8176 29.4322L14.9937 29.4644L14.9615 32.2244Z" fill="white"/>
<path d="M54.5926 29.3858C56.3109 29.8153 57.6211 30.5778 58.8239 31.8236C59.4468 32.4894 60.3704 33.7029 60.4455 33.9929C60.467 34.0788 57.5245 36.0548 55.7417 37.161C55.6773 37.2039 55.4196 36.9247 55.1296 36.4951C54.2597 35.2279 53.3469 34.6802 51.9508 34.5836C49.8996 34.4439 48.5787 35.5179 48.5894 37.3113C48.5894 37.8375 48.6646 38.149 48.8794 38.5786C49.3304 39.5129 50.1681 40.0713 52.7992 41.2097C57.6426 43.2931 59.7153 44.6677 61.004 46.6222C62.443 48.8023 62.7652 52.2818 61.7879 54.87C60.714 57.6836 58.0507 59.5952 54.3027 60.2288C53.1429 60.4329 50.3936 60.4007 49.1479 60.1751C46.4308 59.6919 43.8534 58.3495 42.264 56.5882C41.6411 55.9009 40.4276 54.1075 40.5028 53.9786C40.535 53.9356 40.8142 53.7638 41.1257 53.5812C41.4264 53.4094 42.5647 52.7543 43.6386 52.1315L45.5824 51.0038L45.9905 51.6052C46.5597 52.4751 47.8055 53.6672 48.5572 54.0645C50.7158 55.2029 53.6798 55.0418 55.1403 53.7316C55.7632 53.1624 56.021 52.5718 56.021 51.7019C56.021 50.9179 55.9243 50.5743 55.5162 49.9836C54.99 49.2319 53.9161 48.5982 50.8661 47.2773C47.3759 45.7738 45.8724 44.8395 44.4978 43.3575C43.7031 42.4984 42.9513 41.1237 42.6399 39.9746C42.3821 39.0189 42.3177 36.624 42.5218 35.6575C43.2413 32.2854 45.7865 29.9335 49.4593 29.2354C50.6514 29.0099 53.4221 29.0958 54.5926 29.3858Z" fill="white"/>
</svg>
