<svg viewBox="0 0 28 28" fill="none" xmlns="http://www.w3.org/2000/svg">
<path d="M0.727153 24.7272C0.0242172 25.4302 0.0242172 26.5697 0.727153 27.2727C1.43009 27.9756 2.5698 27.9756 3.27274 27.2727L0.727153 24.7272ZM15.2727 15.2727C15.9756 14.5697 15.9756 13.4302 15.2727 12.7272C14.5697 12.0243 13.4302 12.0243 12.7272 12.7272L15.2727 15.2727ZM12.7272 12.7272C12.0243 13.4302 12.0243 14.5697 12.7272 15.2727C13.4302 15.9756 14.5697 15.9756 15.2727 15.2727L12.7272 12.7272ZM27.2727 3.27274C27.9756 2.5698 27.9756 1.43009 27.2727 0.727153C26.5697 0.0242172 25.4302 0.0242172 24.7272 0.727153L27.2727 3.27274ZM15.2727 12.7272C14.5697 12.0243 13.4302 12.0243 12.7272 12.7272C12.0243 13.4302 12.0243 14.5697 12.7272 15.2727L15.2727 12.7272ZM24.7272 27.2727C25.4302 27.9756 26.5697 27.9756 27.2727 27.2727C27.9756 26.5697 27.9756 25.4302 27.2727 24.7272L24.7272 27.2727ZM12.7272 15.2727C13.4302 15.9756 14.5697 15.9756 15.2727 15.2727C15.9756 14.5697 15.9756 13.4302 15.2727 12.7272L12.7272 15.2727ZM3.27274 0.727153C2.5698 0.0242172 1.43009 0.0242172 0.727153 0.727153C0.0242172 1.43009 0.0242172 2.5698 0.727153 3.27274L3.27274 0.727153ZM3.27274 27.2727L15.2727 15.2727L12.7272 12.7272L0.727153 24.7272L3.27274 27.2727ZM15.2727 15.2727L27.2727 3.27274L24.7272 0.727153L12.7272 12.7272L15.2727 15.2727ZM12.7272 15.2727L24.7272 27.2727L27.2727 24.7272L15.2727 12.7272L12.7272 15.2727ZM15.2727 12.7272L3.27274 0.727153L0.727153 3.27274L12.7272 15.2727L15.2727 12.7272Z" fill="current"/>
</svg>
