<svg viewBox="0 0 48 58" fill="none" xmlns="http://www.w3.org/2000/svg">
<path d="M28.0125 0.25H5.25C3.92392 0.25 2.65215 0.776784 1.71447 1.71447C0.776784 2.65215 0.25 3.92392 0.25 5.25V52.75C0.25 54.0761 0.776784 55.3479 1.71447 56.2855C2.65215 57.2232 3.92392 57.75 5.25 57.75H42.75C44.0761 57.75 45.3479 57.2232 46.2855 56.2855C47.2232 55.3479 47.75 54.0761 47.75 52.75V17.75L28.0125 0.25Z" fill="white"/>
<path d="M47.75 17.75H30.25C29.587 17.75 28.9511 17.4866 28.4822 17.0178C28.0134 16.5489 27.75 15.913 27.75 15.25V0.25L47.75 17.75Z" fill="#89879A"/>
<path d="M35.25 36.5H12.75C12.087 36.5 11.4511 36.2366 10.9822 35.7678C10.5134 35.2989 10.25 34.663 10.25 34C10.25 33.337 10.5134 32.7011 10.9822 32.2322C11.4511 31.7634 12.087 31.5 12.75 31.5H35.25C35.913 31.5 36.5489 31.7634 37.0178 32.2322C37.4866 32.7011 37.75 33.337 37.75 34C37.75 34.663 37.4866 35.2989 37.0178 35.7678C36.5489 36.2366 35.913 36.5 35.25 36.5Z" fill="#89879A"/>
<path d="M35.25 49H12.75C12.087 49 11.4511 48.7366 10.9822 48.2678C10.5134 47.7989 10.25 47.163 10.25 46.5C10.25 45.837 10.5134 45.2011 10.9822 44.7322C11.4511 44.2634 12.087 44 12.75 44H35.25C35.913 44 36.5489 44.2634 37.0178 44.7322C37.4866 45.2011 37.75 45.837 37.75 46.5C37.75 47.163 37.4866 47.7989 37.0178 48.2678C36.5489 48.7366 35.913 49 35.25 49Z" fill="#89879A"/>
</svg>
