<svg viewBox="0 0 61 61" fill="none" xmlns="http://www.w3.org/2000/svg">
<path fill-rule="evenodd" clip-rule="evenodd" d="M30.5183 0.872681C47.0873 0.872681 60.5183 14.6425 60.5183 31.6315C60.5183 45.2185 51.9323 56.7446 40.0193 60.8156C38.4983 61.1186 37.9583 60.158 37.9583 59.339C37.9583 58.325 37.9943 55.0131 37.9943 50.8971C37.9943 48.0291 37.0343 46.1572 35.9573 45.2032C42.6383 44.4412 49.6583 41.84 49.6583 30.026C49.6583 26.666 48.4943 23.9241 46.5683 21.7701C46.8803 20.9931 47.9093 17.8645 46.2743 13.6285C46.2743 13.6285 43.7603 12.8043 38.0333 16.7823C35.6363 16.1013 33.0683 15.7587 30.5183 15.7467C27.9683 15.7587 25.4033 16.1013 23.0093 16.7823C17.2763 12.8043 14.7563 13.6285 14.7563 13.6285C13.1273 17.8645 14.1563 20.9931 14.4653 21.7701C12.5483 23.9241 11.3753 26.666 11.3753 30.026C11.3753 41.81 18.3803 44.4511 25.0433 45.2281C24.1853 45.9961 23.4083 47.351 23.1383 49.34C21.4283 50.126 17.0843 51.4863 14.4083 46.7853C14.4083 46.7853 12.8213 43.8299 9.80931 43.6139C9.80931 43.6139 6.88431 43.575 9.60531 45.483C9.60531 45.483 11.5703 46.428 12.9353 49.983C12.9353 49.983 14.6963 55.4729 23.0423 53.6129C23.0573 56.1839 23.0843 58.607 23.0843 59.339C23.0843 60.152 22.5323 61.1035 21.0353 60.8185C9.1133 56.7535 0.518311 45.2215 0.518311 31.6315C0.518311 14.6425 13.9523 0.872681 30.5183 0.872681Z" fill="#F0F6FC"/>
</svg>
