<svg viewBox="0 0 50 50" fill="none" xmlns="http://www.w3.org/2000/svg">
<path d="M47.5 17.5V2.5M47.5 2.5H32.5M47.5 2.5L27.5 22.5M20 7.5H14.5C10.2996 7.5 8.1994 7.5 6.59508 8.31745C5.18385 9.0365 4.0365 10.1839 3.31745 11.5951C2.5 13.1994 2.5 15.2996 2.5 19.5V35.5C2.5 39.7005 2.5 41.8005 3.31745 43.405C4.0365 44.8162 5.18385 45.9635 6.59508 46.6825C8.1994 47.5 10.2996 47.5 14.5 47.5H30.5C34.7005 47.5 36.8005 47.5 38.405 46.6825C39.8162 45.9635 40.9635 44.8162 41.6825 43.405C42.5 41.8005 42.5 39.7005 42.5 35.5V30" stroke="current" stroke-width="5" stroke-linecap="round" stroke-linejoin="round"/>
</svg>
