<svg viewBox="0 0 97 21" fill="none" xmlns="http://www.w3.org/2000/svg">
<path d="M6.88574 0.359375H8.42188V10.8975C8.42188 11.8141 8.37174 12.5303 8.27148 13.0459C8.17839 13.5615 8.01725 14.0091 7.78809 14.3887C7.43001 15.0046 6.93229 15.4844 6.29492 15.8281C5.66471 16.1647 4.95931 16.333 4.17871 16.333C3.01139 16.333 2.06966 15.957 1.35352 15.2051C0.644531 14.446 0.290039 13.4434 0.290039 12.1973H1.82617C1.86914 12.9707 2.11621 13.5973 2.56738 14.0771C3.02572 14.5498 3.59147 14.7861 4.26465 14.7861C5.21712 14.7861 5.8903 14.4854 6.28418 13.8838C6.68522 13.2751 6.88574 12.0648 6.88574 10.2529V0.359375Z" fill="white"/>
<path d="M11.999 10.0811C11.999 11.4417 12.4323 12.584 13.2988 13.5078C14.1654 14.4245 15.2432 14.8828 16.5322 14.8828C17.7998 14.8828 18.8633 14.4245 19.7227 13.5078C20.582 12.584 21.0117 11.4346 21.0117 10.0596C21.0117 8.66309 20.5749 7.51725 19.7012 6.62207C18.8346 5.71973 17.7318 5.26855 16.3926 5.26855C15.1895 5.26855 14.1546 5.73047 13.2881 6.6543C12.4287 7.57812 11.999 8.72038 11.999 10.0811ZM10.4092 10.1025C10.4092 8.36947 11.0036 6.88704 12.1924 5.65527C13.3812 4.4235 14.7884 3.80762 16.4141 3.80762C18.1257 3.80762 19.583 4.41276 20.7861 5.62305C21.9964 6.83333 22.6016 8.27637 22.6016 9.95215C22.6016 11.7139 22.0107 13.2178 20.8291 14.4639C19.6475 15.71 18.2152 16.333 16.5322 16.333C14.8206 16.333 13.3704 15.7243 12.1816 14.5068C11 13.2822 10.4092 11.8141 10.4092 10.1025Z" fill="white"/>
<path d="M24.3955 4.18359H25.8672V5.52637C26.3327 4.98926 26.8698 4.5918 27.4785 4.33398C28.0944 4.07617 28.7962 3.94727 29.584 3.94727C30.4505 3.94727 31.2204 4.1084 31.8936 4.43066C32.5739 4.75293 33.111 5.21484 33.5049 5.81641C33.777 6.23893 33.9704 6.73665 34.085 7.30957C34.2067 7.87533 34.2676 8.71322 34.2676 9.82324V16H32.7744V9.38281C32.7744 7.98633 32.5059 6.97298 31.9688 6.34277C31.4388 5.71257 30.5866 5.39746 29.4121 5.39746C28.7246 5.39746 28.1195 5.53711 27.5967 5.81641C27.0811 6.08854 26.6729 6.48242 26.3721 6.99805C26.1859 7.32031 26.0534 7.68913 25.9746 8.10449C25.903 8.5127 25.8672 9.22884 25.8672 10.2529V16H24.3955V4.18359Z" fill="white"/>
<path d="M38.7041 16.9668C38.9333 17.6543 39.3486 18.1878 39.9502 18.5674C40.5518 18.9541 41.2822 19.1475 42.1416 19.1475C43.488 19.1475 44.5658 18.6999 45.375 17.8047C46.1914 16.9095 46.5996 15.7135 46.5996 14.2168V13.9053C46.0267 14.6859 45.375 15.2767 44.6445 15.6777C43.9141 16.0716 43.1084 16.2686 42.2275 16.2686C40.4515 16.2686 38.9762 15.6777 37.8018 14.4961C36.6273 13.3073 36.04 11.8285 36.04 10.0596C36.04 8.31934 36.6201 6.8584 37.7803 5.67676C38.9404 4.49512 40.3763 3.9043 42.0879 3.9043C43.0833 3.9043 43.9427 4.08333 44.666 4.44141C45.3965 4.79948 46.041 5.35807 46.5996 6.11719V4.18359H48.082V14.0449C48.082 16.1074 47.5628 17.7188 46.5244 18.8789C45.4932 20.0391 44.068 20.6191 42.249 20.6191C40.9098 20.6191 39.7604 20.2861 38.8008 19.6201C37.8411 18.9613 37.2217 18.0768 36.9424 16.9668H38.7041ZM37.6514 9.99512C37.6514 11.3773 38.0882 12.5339 38.9619 13.4648C39.8428 14.3958 40.9027 14.8613 42.1416 14.8613C43.3089 14.8613 44.3402 14.3958 45.2354 13.4648C46.1305 12.5267 46.5781 11.4274 46.5781 10.167C46.5781 8.82064 46.1377 7.67122 45.2568 6.71875C44.376 5.76628 43.3376 5.29004 42.1416 5.29004C40.9098 5.29004 39.8535 5.74479 38.9727 6.6543C38.0918 7.55664 37.6514 8.67025 37.6514 9.99512Z" fill="white"/>
<path d="M55.2041 10.2529V16H53.6895V10.2314L48.6943 0.359375H50.4561L54.4521 8.48047L58.502 0.359375H60.2207L55.2041 10.2529Z" fill="white"/>
<path d="M71.0703 10.5645H60.4033C60.4964 11.8535 60.9619 12.8955 61.7998 13.6904C62.6377 14.4854 63.6833 14.8828 64.9365 14.8828C65.8245 14.8828 66.623 14.6536 67.332 14.1953C68.041 13.7298 68.5889 13.0853 68.9756 12.2617H70.6943C70.1501 13.5723 69.3838 14.5785 68.3955 15.2803C67.4144 15.9821 66.2757 16.333 64.9795 16.333C63.2607 16.333 61.807 15.7207 60.6182 14.4961C59.4294 13.2715 58.835 11.7998 58.835 10.0811C58.835 8.28353 59.415 6.79753 60.5752 5.62305C61.7425 4.44857 63.2321 3.86133 65.0439 3.86133C66.82 3.86133 68.2666 4.47363 69.3838 5.69824C70.5081 6.91569 71.0703 8.50195 71.0703 10.457V10.5645ZM69.3945 9.28613C69.1081 7.96126 68.5817 6.96582 67.8154 6.2998C67.0492 5.62663 66.0501 5.29004 64.8184 5.29004C63.6725 5.29004 62.7021 5.65169 61.9072 6.375C61.1123 7.09115 60.6253 8.06152 60.4463 9.28613H69.3945Z" fill="white"/>
<path d="M73.7666 10.0811C73.7666 11.4417 74.1999 12.584 75.0664 13.5078C75.9329 14.4245 77.0107 14.8828 78.2998 14.8828C79.5674 14.8828 80.6309 14.4245 81.4902 13.5078C82.3496 12.584 82.7793 11.4346 82.7793 10.0596C82.7793 8.66309 82.3424 7.51725 81.4688 6.62207C80.6022 5.71973 79.4993 5.26855 78.1602 5.26855C76.957 5.26855 75.9222 5.73047 75.0557 6.6543C74.1963 7.57812 73.7666 8.72038 73.7666 10.0811ZM72.1768 10.1025C72.1768 8.36947 72.7712 6.88704 73.96 5.65527C75.1488 4.4235 76.556 3.80762 78.1816 3.80762C79.8932 3.80762 81.3506 4.41276 82.5537 5.62305C83.764 6.83333 84.3691 8.27637 84.3691 9.95215C84.3691 11.7139 83.7783 13.2178 82.5967 14.4639C81.415 15.71 79.9827 16.333 78.2998 16.333C76.5882 16.333 75.138 15.7243 73.9492 14.5068C72.7676 13.2822 72.1768 11.8141 72.1768 10.1025Z" fill="white"/>
<path d="M86.1631 4.18359H87.6348V5.52637C88.1003 4.98926 88.6374 4.5918 89.2461 4.33398C89.862 4.07617 90.5638 3.94727 91.3516 3.94727C92.2181 3.94727 92.988 4.1084 93.6611 4.43066C94.3415 4.75293 94.8786 5.21484 95.2725 5.81641C95.5446 6.23893 95.738 6.73665 95.8525 7.30957C95.9743 7.87533 96.0352 8.71322 96.0352 9.82324V16H94.542V9.38281C94.542 7.98633 94.2734 6.97298 93.7363 6.34277C93.2064 5.71257 92.3542 5.39746 91.1797 5.39746C90.4922 5.39746 89.887 5.53711 89.3643 5.81641C88.8486 6.08854 88.4404 6.48242 88.1396 6.99805C87.9535 7.32031 87.821 7.68913 87.7422 8.10449C87.6706 8.5127 87.6348 9.22884 87.6348 10.2529V16H86.1631V4.18359Z" fill="white"/>
</svg>
