<svg viewBox="0 0 45 30" fill="none" xmlns="http://www.w3.org/2000/svg">
<path d="M20.878 26.198H20.86C18.52 26.198 16.684 24.47 16.684 21.716C16.684 18.8 18.61 17.09 21.004 17.09C23.506 17.09 25.198 18.908 25.198 21.554C25.198 24.794 22.948 26.198 20.878 26.198ZM20.914 25.01H20.932C22.444 25.01 23.578 23.588 23.578 21.608C23.578 20.132 22.84 18.278 20.968 18.278C19.114 18.278 18.304 20.006 18.304 21.662C18.304 23.57 19.384 25.01 20.914 25.01Z" fill="white"/>
<path d="M27.1929 26V19.646C27.1929 18.728 27.1749 18.008 27.1209 17.288H28.5249L28.6149 18.71H28.6509C29.0829 17.9 30.0909 17.09 31.5309 17.09C32.7369 17.09 34.6089 17.81 34.6089 20.798V26H33.0249V20.978C33.0249 19.574 32.5029 18.386 31.0089 18.386C29.9829 18.386 29.1729 19.124 28.8849 20.006C28.8129 20.204 28.7769 20.492 28.7769 20.744V26H27.1929Z" fill="white"/>
<path d="M44.6293 19.664V24.722C44.6293 26.738 44.2153 27.944 43.3873 28.718C42.5233 29.492 41.2993 29.762 40.2013 29.762C39.1573 29.762 38.0053 29.51 37.3033 29.042L37.6993 27.818C38.2753 28.196 39.1753 28.52 40.2553 28.52C41.8753 28.52 43.0633 27.674 43.0633 25.46V24.506H43.0273C42.5593 25.316 41.6053 25.964 40.2553 25.964C38.0953 25.964 36.5473 24.128 36.5473 21.698C36.5473 18.746 38.4733 17.09 40.4893 17.09C42.0013 17.09 42.8113 17.864 43.2073 18.602H43.2433L43.2973 17.288H44.7013C44.6473 17.9 44.6293 18.62 44.6293 19.664ZM43.0453 22.274V20.708C43.0453 20.456 43.0273 20.222 42.9553 20.006C42.6673 19.07 41.9113 18.314 40.7413 18.314C39.2293 18.314 38.1493 19.592 38.1493 21.626C38.1493 23.318 39.0313 24.758 40.7233 24.758C41.7133 24.758 42.5953 24.146 42.9193 23.12C43.0093 22.868 43.0453 22.562 43.0453 22.274Z" fill="white"/>
<path d="M8.92002 17.04V0.0399933H15V17.08C15 24.76 11.32 27.44 5.44002 27.44C4.00002 27.44 2.16002 27.2 0.960022 26.8L1.64002 21.88C2.48002 22.16 3.56002 22.36 4.76002 22.36C7.32002 22.36 8.92002 21.2 8.92002 17.04Z" fill="white"/>
<path d="M31.544 11.288H27.476C27.5 12.704 28.4 13.292 29.456 13.292C30.212 13.292 30.68 13.16 31.064 12.992L31.256 13.748C30.884 13.916 30.236 14.12 29.312 14.12C27.536 14.12 26.456 12.932 26.456 11.192C26.456 9.43999 27.5 8.05999 29.192 8.05999C31.088 8.05999 31.58 9.72799 31.58 10.796C31.58 11.012 31.568 11.168 31.544 11.288ZM27.488 10.532H30.56C30.572 9.85999 30.284 8.81599 29.108 8.81599C28.028 8.81599 27.572 9.79999 27.488 10.532Z" fill="white"/>
<path d="M35.2637 14.132H35.2517C33.6917 14.132 32.4677 12.98 32.4677 11.144C32.4677 9.19999 33.7517 8.05999 35.3477 8.05999C37.0157 8.05999 38.1437 9.27199 38.1437 11.036C38.1437 13.196 36.6437 14.132 35.2637 14.132ZM35.2877 13.34H35.2997C36.3077 13.34 37.0637 12.392 37.0637 11.072C37.0637 10.088 36.5717 8.85199 35.3237 8.85199C34.0877 8.85199 33.5477 10.004 33.5477 11.108C33.5477 12.38 34.2677 13.34 35.2877 13.34Z" fill="white"/>
<path d="M39.4737 14V9.76399C39.4737 9.15199 39.4617 8.67199 39.4257 8.19199H40.3617L40.4217 9.13999H40.4457C40.7337 8.59999 41.4057 8.05999 42.3657 8.05999C43.1697 8.05999 44.4177 8.53999 44.4177 10.532V14H43.3617V10.652C43.3617 9.71599 43.0137 8.92399 42.0177 8.92399C41.3337 8.92399 40.7937 9.41599 40.6017 10.004C40.5537 10.136 40.5297 10.328 40.5297 10.496V14H39.4737Z" fill="white"/>
<path d="M24.48 14H21.44V8.47999L17.18 0.519994H20.68L22.04 3.75999C22.46 4.73999 22.76 5.45999 23.08 6.33999H23.12C23.42 5.49999 23.74 4.71999 24.14 3.75999L25.5 0.519994H28.92L24.48 8.37999V14Z" fill="white"/>
</svg>
