<svg viewBox="0 0 888 515" fill="none" xmlns="http://www.w3.org/2000/svg">
<g filter="url(#filter0_f_209_210)">
<path d="M1 513C1 512.448 81.5257 512 83.1227 512H811.817C813.414 512 887 512.448 887 513C887 513.552 813.414 514 811.817 514H83.1227C81.5257 514 1 513.552 1 513Z" fill="black" fill-opacity="0.75"/>
</g>
<path d="M822 510C820.719 511.281 818.983 512 817.172 512H781.829C780.017 512 778.281 511.281 777 510H822Z" fill="#444444"/>
<path d="M822 510C820.719 511.281 818.983 512 817.172 512H781.829C780.017 512 778.281 511.281 777 510H822Z" fill="url(#paint0_linear_209_210)" fill-opacity="0.5"/>
<path d="M822 510C820.719 511.281 818.983 512 817.172 512H781.829C780.017 512 778.281 511.281 777 510H822Z" fill="url(#paint1_linear_209_210)" fill-opacity="0.8"/>
<path d="M774 506H825L822 510H777L774 506Z" fill="#C4C4C4"/>
<path d="M774 506H825L822 510H777L774 506Z" fill="url(#paint2_linear_209_210)" fill-opacity="0.8"/>
<path d="M111 510C109.719 511.281 107.983 512 106.172 512H70.8285C69.0175 512 67.2806 511.281 66 510H111Z" fill="#444444"/>
<path d="M111 510C109.719 511.281 107.983 512 106.172 512H70.8285C69.0175 512 67.2806 511.281 66 510H111Z" fill="url(#paint3_linear_209_210)" fill-opacity="0.5"/>
<path d="M111 510C109.719 511.281 107.983 512 106.172 512H70.8285C69.0175 512 67.2806 511.281 66 510H111Z" fill="url(#paint4_linear_209_210)" fill-opacity="0.8"/>
<path d="M63 506H114L111 510H66L63 506Z" fill="#C4C4C4"/>
<path d="M63 506H114L111 510H66L63 506Z" fill="url(#paint5_linear_209_210)" fill-opacity="0.8"/>
<path fill-rule="evenodd" clip-rule="evenodd" d="M23 478.712C23 478.319 23.3092 478 23.6906 478H864.309C864.691 478 865 478.319 865 478.712V492.247C865 497.014 862.5 501.5 859 504C856.543 505.253 853.371 506 850 506H38C34.6287 506 31.4568 505.253 29 504C25.5 501.5 23 497.014 23 492.247V478.712Z" fill="#777777"/>
<path d="M38 506H850C853.371 506 856.543 505.253 859 504H29C31.4568 505.253 34.6287 506 38 506Z" fill="url(#paint6_linear_209_210)" fill-opacity="0.4"/>
<path d="M23.6906 478C23.3092 478 23 478.319 23 478.712V492.247C23 497.014 25.5 501.5 29 504H859C862.5 501.5 865 497.014 865 492.247V478.712C865 478.319 864.691 478 864.309 478H23.6906Z" fill="url(#paint7_radial_209_210)" fill-opacity="0.6"/>
<path d="M23.6906 478C23.3092 478 23 478.319 23 478.712V492.247C23 497.014 25.5 501.5 29 504H859C862.5 501.5 865 497.014 865 492.247V478.712C865 478.319 864.691 478 864.309 478H23.6906Z" fill="url(#paint8_linear_209_210)" fill-opacity="0.5"/>
<path fill-rule="evenodd" clip-rule="evenodd" d="M119 0C107.954 0 99 8.95432 99 20V478H789V20C789 8.9543 780.046 0 769 0H119ZM117.467 11C113.343 11 110 14.3529 110 18.489C110 64.9549 109.999 112.709 109.999 160.907C109.998 259.832 109.997 360.629 110 456H778L778 18.489C778 14.3529 774.657 11 770.533 11H481.677C480.552 11 479.64 11.9144 479.64 13.0425V19.8506C479.64 21.7307 478.12 23.2547 476.246 23.2547H411.754C409.879 23.2547 408.36 21.7307 408.36 19.8506V13.0425C408.36 11.9144 407.448 11 406.323 11H117.467Z" fill="black"/>
<rect x="99" y="463" width="690" height="15" fill="#1B1B1B"/>
<g style="mix-blend-mode:hard-light" opacity="0.8">
<path d="M388 478H517C517 483.833 511.444 486 507.074 486H397.926C393.556 486 388 483.833 388 478Z" fill="#E1E2E3"/>
<path d="M388 478H517C517 483.833 511.444 486 507.074 486H397.926C393.556 486 388 483.833 388 478Z" fill="url(#paint9_linear_209_210)"/>
</g>
<g style="mix-blend-mode:multiply">
<path d="M388 478H517C517 483.833 511.444 486 507.074 486H397.926C393.556 486 388 483.833 388 478Z" fill="#E1E2E3"/>
<path d="M388 478H517C517 483.833 511.444 486 507.074 486H397.926C393.556 486 388 483.833 388 478Z" fill="url(#paint10_linear_209_210)"/>
</g>
<defs>
<filter id="filter0_f_209_210" x="0" y="511" width="888" height="4" filterUnits="userSpaceOnUse" color-interpolation-filters="sRGB">
<feFlood flood-opacity="0" result="BackgroundImageFix"/>
<feBlend mode="normal" in="SourceGraphic" in2="BackgroundImageFix" result="shape"/>
<feGaussianBlur stdDeviation="0.5" result="effect1_foregroundBlur_209_210"/>
</filter>
<linearGradient id="paint0_linear_209_210" x1="799.5" y1="510" x2="799.5" y2="512" gradientUnits="userSpaceOnUse">
<stop offset="0.130273"/>
<stop offset="0.375191" stop-opacity="0"/>
</linearGradient>
<linearGradient id="paint1_linear_209_210" x1="777" y1="512" x2="822" y2="512" gradientUnits="userSpaceOnUse">
<stop offset="0.035499" stop-opacity="0"/>
<stop offset="0.183503"/>
<stop offset="0.398916" stop-opacity="0"/>
<stop offset="0.633378" stop-opacity="0"/>
<stop offset="0.837067"/>
<stop offset="0.970418" stop-opacity="0"/>
</linearGradient>
<linearGradient id="paint2_linear_209_210" x1="774" y1="510" x2="824" y2="510" gradientUnits="userSpaceOnUse">
<stop stop-opacity="0"/>
<stop offset="0.186299"/>
<stop offset="0.456756" stop-opacity="0"/>
<stop offset="0.546908" stop-opacity="0"/>
<stop offset="0.835968"/>
<stop offset="1" stop-opacity="0"/>
</linearGradient>
<linearGradient id="paint3_linear_209_210" x1="88.5" y1="510" x2="88.5" y2="512" gradientUnits="userSpaceOnUse">
<stop offset="0.130273"/>
<stop offset="0.375191" stop-opacity="0"/>
</linearGradient>
<linearGradient id="paint4_linear_209_210" x1="66" y1="512" x2="111" y2="512" gradientUnits="userSpaceOnUse">
<stop offset="0.035499" stop-opacity="0"/>
<stop offset="0.183503"/>
<stop offset="0.398916" stop-opacity="0"/>
<stop offset="0.633378" stop-opacity="0"/>
<stop offset="0.837067"/>
<stop offset="0.970418" stop-opacity="0"/>
</linearGradient>
<linearGradient id="paint5_linear_209_210" x1="63" y1="510" x2="113" y2="510" gradientUnits="userSpaceOnUse">
<stop stop-opacity="0"/>
<stop offset="0.186299"/>
<stop offset="0.456756" stop-opacity="0"/>
<stop offset="0.546908" stop-opacity="0"/>
<stop offset="0.835968"/>
<stop offset="1" stop-opacity="0"/>
</linearGradient>
<linearGradient id="paint6_linear_209_210" x1="809" y1="504" x2="809" y2="506" gradientUnits="userSpaceOnUse">
<stop offset="0.444236" stop-opacity="0"/>
<stop offset="0.867408"/>
</linearGradient>
<radialGradient id="paint7_radial_209_210" cx="0" cy="0" r="1" gradientUnits="userSpaceOnUse" gradientTransform="translate(444 504) rotate(-180) scale(421 13633.9)">
<stop stop-color="white" stop-opacity="0.5"/>
<stop offset="0.364583" stop-color="white" stop-opacity="0"/>
<stop offset="0.703125" stop-color="white" stop-opacity="0"/>
<stop offset="0.96875" stop-color="white"/>
<stop offset="1" stop-color="white" stop-opacity="0"/>
</radialGradient>
<linearGradient id="paint8_linear_209_210" x1="812" y1="478" x2="812" y2="504" gradientUnits="userSpaceOnUse">
<stop offset="0.102925" stop-opacity="0"/>
<stop offset="0.6646"/>
<stop offset="0.772607"/>
<stop offset="0.90268" stop-opacity="0.58"/>
<stop offset="1" stop-opacity="0"/>
</linearGradient>
<linearGradient id="paint9_linear_209_210" x1="517" y1="486" x2="388" y2="486" gradientUnits="userSpaceOnUse">
<stop stop-color="#8A8A8A"/>
<stop offset="0.203125" stop-color="#AAAAAA" stop-opacity="0"/>
<stop offset="0.8125" stop-color="#AAAAAA" stop-opacity="0"/>
<stop offset="1" stop-color="#8A8A8A"/>
</linearGradient>
<linearGradient id="paint10_linear_209_210" x1="517" y1="486" x2="388" y2="486" gradientUnits="userSpaceOnUse">
<stop stop-color="#8A8A8A"/>
<stop offset="0.203125" stop-color="#AAAAAA" stop-opacity="0"/>
<stop offset="0.8125" stop-color="#AAAAAA" stop-opacity="0"/>
<stop offset="1" stop-color="#8A8A8A"/>
</linearGradient>
</defs>
</svg>
